<svg width="66" height="65" viewBox="0 0 66 65" fill="none" xmlns="http://www.w3.org/2000/svg">
<rect x="0.5" y="0.5" width="65" height="64" rx="32" fill="#011423"/>
<rect x="0.5" y="0.5" width="65" height="64" rx="32" stroke="#FFEAA7"/>
<path d="M13.2 18.004V17.5L14.352 18.004H19.14V18.34H14.28V23.848C14.28 23.888 14.236 23.94 14.148 24.004C14.06 24.06 13.948 24.112 13.812 24.16C13.676 24.208 13.528 24.232 13.368 24.232H13.2V18.004ZM13.764 19.708H19.2V20.056H13.764V19.708ZM13.764 21.472H19.2V21.82H13.764V21.472ZM15.912 18.004H16.968V23.872C16.968 23.896 16.888 23.948 16.728 24.028C16.576 24.1 16.364 24.136 16.092 24.136H15.912V18.004ZM13.08 15.532H18.96V15.88H13.188L13.08 15.532ZM18.312 15.532H18.18L18.828 14.908L19.932 15.964C19.876 16.004 19.812 16.032 19.74 16.048C19.668 16.064 19.564 16.076 19.428 16.084C19.204 16.22 18.924 16.356 18.588 16.492C18.26 16.628 17.92 16.756 17.568 16.876C17.224 16.988 16.908 17.084 16.62 17.164L16.5 17.068C16.7 16.932 16.916 16.776 17.148 16.6C17.38 16.416 17.6 16.232 17.808 16.048C18.024 15.856 18.192 15.684 18.312 15.532ZM12.012 23.644C12.22 23.868 12.44 24.052 12.672 24.196C12.904 24.332 13.164 24.436 13.452 24.508C13.748 24.58 14.092 24.628 14.484 24.652C14.876 24.676 15.34 24.688 15.876 24.688C16.34 24.688 16.844 24.688 17.388 24.688C17.94 24.68 18.492 24.672 19.044 24.664C19.604 24.656 20.132 24.648 20.628 24.64V24.796C20.396 24.844 20.216 24.948 20.088 25.108C19.96 25.268 19.88 25.476 19.848 25.732C19.48 25.732 19.068 25.732 18.612 25.732C18.164 25.732 17.704 25.732 17.232 25.732C16.768 25.732 16.32 25.732 15.888 25.732C15.328 25.732 14.84 25.708 14.424 25.66C14.008 25.612 13.644 25.52 13.332 25.384C13.028 25.248 12.756 25.06 12.516 24.82C12.284 24.572 12.064 24.252 11.856 23.86C11.704 24.06 11.528 24.276 11.328 24.508C11.136 24.74 10.944 24.96 10.752 25.168C10.56 25.376 10.388 25.556 10.236 25.708C10.244 25.788 10.232 25.848 10.2 25.888C10.176 25.936 10.136 25.972 10.08 25.996L9.396 24.712C9.62 24.624 9.88 24.512 10.176 24.376C10.48 24.232 10.792 24.076 11.112 23.908C11.44 23.74 11.74 23.584 12.012 23.44V23.644ZM12.012 20.56V23.62L10.932 24.244V20.404H9.492L9.42 20.056H10.752L11.34 19.276L12.612 20.32C12.564 20.36 12.492 20.404 12.396 20.452C12.308 20.5 12.18 20.536 12.012 20.56ZM10.02 15.232C10.564 15.36 10.996 15.528 11.316 15.736C11.644 15.936 11.88 16.148 12.024 16.372C12.176 16.588 12.252 16.796 12.252 16.996C12.26 17.196 12.212 17.364 12.108 17.5C12.012 17.628 11.88 17.704 11.712 17.728C11.552 17.744 11.38 17.68 11.196 17.536C11.148 17.28 11.056 17.016 10.92 16.744C10.784 16.472 10.628 16.212 10.452 15.964C10.276 15.708 10.096 15.492 9.912 15.316L10.02 15.232ZM14.436 16.384C15.116 16.432 15.672 16.512 16.104 16.624C16.536 16.728 16.864 16.848 17.088 16.984C17.32 17.12 17.472 17.256 17.544 17.392C17.616 17.528 17.628 17.656 17.58 17.776C17.54 17.888 17.46 17.976 17.34 18.04C17.228 18.104 17.096 18.132 16.944 18.124C16.8 18.108 16.664 18.04 16.536 17.92C16.352 17.688 16.08 17.452 15.72 17.212C15.368 16.964 14.92 16.748 14.376 16.564L14.436 16.384ZM18.684 18.004H18.564L19.08 17.38L20.28 18.304C20.248 18.344 20.188 18.388 20.1 18.436C20.012 18.484 19.908 18.516 19.788 18.532V22.984C19.788 23.232 19.756 23.444 19.692 23.62C19.636 23.796 19.512 23.936 19.32 24.04C19.136 24.144 18.848 24.216 18.456 24.256C18.448 24.104 18.432 23.968 18.408 23.848C18.384 23.72 18.344 23.62 18.288 23.548C18.232 23.476 18.152 23.412 18.048 23.356C17.952 23.292 17.804 23.248 17.604 23.224V23.044C17.604 23.044 17.64 23.048 17.712 23.056C17.784 23.064 17.868 23.072 17.964 23.08C18.068 23.08 18.168 23.084 18.264 23.092C18.36 23.1 18.432 23.104 18.48 23.104C18.56 23.104 18.612 23.088 18.636 23.056C18.668 23.016 18.684 22.96 18.684 22.888V18.004ZM24.444 20.38H29.388V20.728H24.444V20.38ZM23.916 18.544V18.064L25.092 18.544H29.292V18.892H25.032V21.016C25.032 21.048 24.984 21.092 24.888 21.148C24.792 21.196 24.668 21.244 24.516 21.292C24.372 21.332 24.224 21.352 24.072 21.352H23.916V18.544ZM28.98 18.544H28.86L29.4 17.968L30.54 18.832C30.508 18.872 30.452 18.916 30.372 18.964C30.3 19.004 30.212 19.032 30.108 19.048V20.896C30.108 20.92 30.052 20.956 29.94 21.004C29.828 21.044 29.7 21.084 29.556 21.124C29.412 21.164 29.28 21.184 29.16 21.184H28.98V18.544ZM22.968 21.964V21.46L24.18 21.964H30.396V22.3H24.096V25.18C24.096 25.212 24.048 25.252 23.952 25.3C23.856 25.356 23.732 25.404 23.58 25.444C23.436 25.492 23.288 25.516 23.136 25.516H22.968V21.964ZM22.896 17.14H31.56V17.476H22.896V17.14ZM22.86 16.468H23.04C23.208 16.924 23.284 17.336 23.268 17.704C23.252 18.064 23.176 18.368 23.04 18.616C22.912 18.856 22.76 19.032 22.584 19.144C22.392 19.256 22.192 19.296 21.984 19.264C21.784 19.232 21.644 19.12 21.564 18.928C21.508 18.744 21.524 18.58 21.612 18.436C21.708 18.292 21.836 18.18 21.996 18.1C22.22 17.972 22.424 17.76 22.608 17.464C22.792 17.16 22.876 16.828 22.86 16.468ZM30.912 17.14H30.78L31.44 16.48L32.592 17.584C32.544 17.632 32.484 17.664 32.412 17.68C32.348 17.696 32.256 17.708 32.136 17.716C31.944 17.884 31.696 18.072 31.392 18.28C31.096 18.48 30.828 18.644 30.588 18.772L30.456 18.688C30.512 18.544 30.568 18.38 30.624 18.196C30.688 18.004 30.744 17.812 30.792 17.62C30.84 17.428 30.88 17.268 30.912 17.14ZM26.4 14.884L27.96 15.016C27.952 15.096 27.92 15.164 27.864 15.22C27.808 15.276 27.704 15.312 27.552 15.328V17.272H26.4V14.884ZM23.568 15.028C24.032 15.116 24.4 15.244 24.672 15.412C24.944 15.572 25.136 15.744 25.248 15.928C25.368 16.112 25.42 16.288 25.404 16.456C25.396 16.624 25.34 16.764 25.236 16.876C25.14 16.988 25.016 17.052 24.864 17.068C24.712 17.076 24.548 17.012 24.372 16.876C24.356 16.668 24.304 16.456 24.216 16.24C24.128 16.024 24.016 15.816 23.88 15.616C23.744 15.416 23.6 15.248 23.448 15.112L23.568 15.028ZM29.268 15.004L30.876 15.58C30.844 15.644 30.788 15.696 30.708 15.736C30.636 15.776 30.536 15.788 30.408 15.772C30.176 15.996 29.88 16.252 29.52 16.54C29.168 16.82 28.82 17.076 28.476 17.308H28.284C28.396 17.092 28.512 16.848 28.632 16.576C28.76 16.304 28.876 16.032 28.98 15.76C29.092 15.48 29.188 15.228 29.268 15.004ZM29.916 21.964H29.796L30.324 21.352L31.548 22.252C31.516 22.3 31.456 22.348 31.368 22.396C31.28 22.444 31.172 22.48 31.044 22.504V24.172C31.044 24.42 31.012 24.64 30.948 24.832C30.884 25.016 30.744 25.164 30.528 25.276C30.32 25.388 29.992 25.464 29.544 25.504C29.536 25.336 29.516 25.188 29.484 25.06C29.452 24.932 29.396 24.824 29.316 24.736C29.244 24.656 29.14 24.584 29.004 24.52C28.868 24.456 28.672 24.404 28.416 24.364V24.208C28.416 24.208 28.464 24.212 28.56 24.22C28.664 24.22 28.792 24.228 28.944 24.244C29.096 24.252 29.24 24.26 29.376 24.268C29.52 24.268 29.624 24.268 29.688 24.268C29.776 24.268 29.836 24.252 29.868 24.22C29.9 24.18 29.916 24.124 29.916 24.052V21.964ZM26.4 20.5H27.516V25.6C27.516 25.624 27.476 25.668 27.396 25.732C27.324 25.804 27.22 25.864 27.084 25.912C26.948 25.968 26.784 25.996 26.592 25.996H26.4V20.5ZM37.416 25.54C36.984 25.54 36.6 25.48 36.264 25.36C35.928 25.24 35.66 25.068 35.46 24.844C35.268 24.612 35.172 24.336 35.172 24.016C35.172 23.6 35.312 23.264 35.592 23.008C35.88 22.744 36.252 22.548 36.708 22.42C37.172 22.292 37.672 22.228 38.208 22.228C38.856 22.228 39.444 22.3 39.972 22.444C40.5 22.588 40.96 22.752 41.352 22.936C41.624 23.064 41.896 23.22 42.168 23.404C42.448 23.58 42.68 23.776 42.864 23.992C43.048 24.208 43.14 24.436 43.14 24.676C43.14 24.844 43.096 24.964 43.008 25.036C42.928 25.116 42.816 25.156 42.672 25.156C42.512 25.156 42.344 25.084 42.168 24.94C42 24.796 41.792 24.616 41.544 24.4C41.304 24.176 40.992 23.956 40.608 23.74C40.216 23.516 39.772 23.328 39.276 23.176C38.78 23.024 38.224 22.948 37.608 22.948C37.224 22.948 36.892 22.992 36.612 23.08C36.332 23.168 36.112 23.284 35.952 23.428C35.8 23.572 35.724 23.732 35.724 23.908C35.724 24.116 35.832 24.288 36.048 24.424C36.272 24.56 36.58 24.628 36.972 24.628C37.436 24.628 37.8 24.572 38.064 24.46C38.328 24.34 38.512 24.16 38.616 23.92C38.728 23.672 38.784 23.356 38.784 22.972C38.784 22.788 38.78 22.576 38.772 22.336C38.764 22.088 38.752 21.832 38.736 21.568C38.728 21.304 38.716 21.04 38.7 20.776C38.692 20.512 38.68 20.26 38.664 20.02C38.656 19.78 38.652 19.564 38.652 19.372C38.644 19.196 38.636 18.976 38.628 18.712C38.628 18.448 38.624 18.18 38.616 17.908C38.608 17.636 38.596 17.396 38.58 17.188C38.572 16.98 38.564 16.84 38.556 16.768C38.548 16.648 38.52 16.556 38.472 16.492C38.424 16.428 38.348 16.376 38.244 16.336C38.116 16.28 37.968 16.236 37.8 16.204C37.64 16.172 37.496 16.148 37.368 16.132L37.356 15.94C37.5 15.868 37.664 15.8 37.848 15.736C38.032 15.664 38.216 15.628 38.4 15.628C38.648 15.628 38.892 15.676 39.132 15.772C39.38 15.868 39.58 15.984 39.732 16.12C39.892 16.256 39.972 16.388 39.972 16.516C39.972 16.652 39.936 16.768 39.864 16.864C39.8 16.952 39.744 17.08 39.696 17.248C39.664 17.352 39.632 17.504 39.6 17.704C39.576 17.904 39.552 18.12 39.528 18.352C39.512 18.576 39.496 18.8 39.48 19.024C39.472 19.24 39.468 19.428 39.468 19.588C39.468 19.724 39.468 19.9 39.468 20.116C39.476 20.332 39.484 20.572 39.492 20.836C39.508 21.092 39.524 21.348 39.54 21.604C39.556 21.86 39.576 22.1 39.6 22.324C39.632 22.604 39.664 22.848 39.696 23.056C39.736 23.264 39.756 23.504 39.756 23.776C39.756 24.016 39.712 24.244 39.624 24.46C39.544 24.676 39.412 24.864 39.228 25.024C39.044 25.184 38.804 25.308 38.508 25.396C38.212 25.492 37.848 25.54 37.416 25.54ZM40.44 19.3C40.304 19.3 40.156 19.272 39.996 19.216C39.836 19.16 39.684 19.092 39.54 19.012C39.404 18.932 39.288 18.86 39.192 18.796L39.18 18.424C39.284 18.44 39.38 18.452 39.468 18.46C39.564 18.468 39.648 18.472 39.72 18.472C39.912 18.472 40.156 18.448 40.452 18.4C40.748 18.344 41.008 18.276 41.232 18.196C41.432 18.124 41.588 18.06 41.7 18.004C41.82 17.94 41.912 17.908 41.976 17.908C42.136 17.908 42.284 17.928 42.42 17.968C42.564 18 42.68 18.056 42.768 18.136C42.856 18.216 42.9 18.328 42.9 18.472C42.9 18.568 42.864 18.66 42.792 18.748C42.728 18.828 42.612 18.9 42.444 18.964C42.34 18.996 42.176 19.04 41.952 19.096C41.736 19.152 41.492 19.2 41.22 19.24C40.956 19.28 40.696 19.3 40.44 19.3ZM49.236 25.696C50.004 25.392 50.624 25.044 51.096 24.652C51.576 24.252 51.944 23.824 52.2 23.368C52.464 22.904 52.644 22.42 52.74 21.916C52.836 21.412 52.884 20.904 52.884 20.392C52.884 19.704 52.832 19.136 52.728 18.688C52.632 18.232 52.488 17.892 52.296 17.668C52.112 17.444 51.892 17.332 51.636 17.332C51.468 17.332 51.288 17.384 51.096 17.488C50.904 17.584 50.716 17.728 50.532 17.92C50.356 18.112 50.2 18.344 50.064 18.616C49.872 18.992 49.724 19.364 49.62 19.732C49.524 20.092 49.476 20.472 49.476 20.872C49.476 21.136 49.488 21.376 49.512 21.592C49.544 21.8 49.56 22.024 49.56 22.264C49.56 22.408 49.512 22.528 49.416 22.624C49.32 22.712 49.204 22.756 49.068 22.756C48.932 22.756 48.816 22.724 48.72 22.66C48.624 22.588 48.54 22.48 48.468 22.336C48.42 22.232 48.38 22.112 48.348 21.976C48.324 21.832 48.304 21.684 48.288 21.532C48.272 21.38 48.264 21.24 48.264 21.112C48.264 20.808 48.292 20.46 48.348 20.068C48.404 19.676 48.468 19.28 48.54 18.88C48.612 18.48 48.676 18.116 48.732 17.788C48.788 17.46 48.816 17.204 48.816 17.02C48.816 16.78 48.792 16.568 48.744 16.384C48.704 16.192 48.632 16.012 48.528 15.844C48.424 15.676 48.288 15.496 48.12 15.304L48.24 15.172C48.368 15.188 48.496 15.216 48.624 15.256C48.76 15.288 48.88 15.336 48.984 15.4C49.168 15.496 49.332 15.62 49.476 15.772C49.628 15.916 49.748 16.064 49.836 16.216C49.924 16.368 49.968 16.504 49.968 16.624C49.968 16.768 49.948 16.9 49.908 17.02C49.876 17.132 49.836 17.26 49.788 17.404C49.724 17.596 49.672 17.784 49.632 17.968C49.592 18.144 49.556 18.316 49.524 18.484C49.516 18.596 49.528 18.656 49.56 18.664C49.6 18.672 49.652 18.62 49.716 18.508C49.916 18.156 50.132 17.852 50.364 17.596C50.596 17.332 50.84 17.128 51.096 16.984C51.36 16.84 51.624 16.768 51.888 16.768C52.36 16.768 52.756 16.916 53.076 17.212C53.404 17.508 53.656 17.94 53.832 18.508C54.008 19.068 54.096 19.748 54.096 20.548C54.096 21.42 53.94 22.22 53.628 22.948C53.324 23.676 52.824 24.3 52.128 24.82C51.432 25.332 50.504 25.708 49.344 25.948L49.236 25.696ZM12.5272 39V38.196C12.9112 37.756 13.2832 37.324 13.6432 36.9C14.0032 36.476 14.3312 36.096 14.6272 35.76C15.0592 35.248 15.4072 34.804 15.6712 34.428C15.9432 34.052 16.1432 33.696 16.2712 33.36C16.3992 33.016 16.4632 32.652 16.4632 32.268C16.4632 31.66 16.3192 31.192 16.0312 30.864C15.7432 30.536 15.3472 30.372 14.8432 30.372C14.6432 30.372 14.4392 30.4 14.2312 30.456C14.0312 30.504 13.8152 30.596 13.5832 30.732L14.1232 30.396L13.8232 31.62C13.7672 31.924 13.6752 32.128 13.5472 32.232C13.4192 32.336 13.2792 32.388 13.1272 32.388C12.9832 32.388 12.8552 32.352 12.7432 32.28C12.6392 32.2 12.5632 32.096 12.5152 31.968C12.5712 31.528 12.7312 31.164 12.9952 30.876C13.2592 30.58 13.5912 30.36 13.9912 30.216C14.3912 30.064 14.8192 29.988 15.2752 29.988C16.1392 29.988 16.7792 30.2 17.1952 30.624C17.6192 31.048 17.8312 31.616 17.8312 32.328C17.8312 32.728 17.7312 33.108 17.5312 33.468C17.3312 33.828 17.0232 34.228 16.6072 34.668C16.1912 35.1 15.6512 35.624 14.9872 36.24C14.8512 36.36 14.6832 36.52 14.4832 36.72C14.2832 36.912 14.0632 37.132 13.8232 37.38C13.5912 37.62 13.3512 37.864 13.1032 38.112L13.2232 37.716V37.92H18.1432V39H12.5272ZM19.6564 41.172L19.5244 40.848C19.9564 40.632 20.2884 40.396 20.5204 40.14C20.7524 39.892 20.9084 39.544 20.9884 39.096L21.1324 39.528L20.4364 39.144C20.2364 39.024 20.0924 38.896 20.0044 38.76C19.9164 38.616 19.8724 38.468 19.8724 38.316C19.8724 38.084 19.9484 37.888 20.1004 37.728C20.2604 37.56 20.4644 37.476 20.7124 37.476C20.8564 37.476 20.9884 37.496 21.1084 37.536C21.2284 37.576 21.3444 37.652 21.4564 37.764C21.5044 37.9 21.5364 38.032 21.5524 38.16C21.5764 38.28 21.5884 38.42 21.5884 38.58C21.5884 39.212 21.4124 39.748 21.0604 40.188C20.7164 40.636 20.2484 40.964 19.6564 41.172ZM23.4968 39V38.652L25.1288 38.448H26.3648L27.8768 38.676V39.024L23.4968 39ZM25.0208 39C25.0448 38.064 25.0568 37.132 25.0568 36.204V30.888L23.4488 31.128V30.732L26.2808 30.048L26.4608 30.18L26.4128 32.088V36.204C26.4128 36.66 26.4168 37.124 26.4248 37.596C26.4328 38.068 26.4408 38.536 26.4488 39H25.0208ZM31.9301 39.192C31.3141 39.192 30.7781 39.048 30.3221 38.76C29.8741 38.464 29.5301 38.052 29.2901 37.524C29.0501 36.988 28.9301 36.352 28.9301 35.616C28.9301 34.904 29.0541 34.228 29.3021 33.588C29.5581 32.948 29.9221 32.376 30.3941 31.872C30.8741 31.36 31.4461 30.94 32.1101 30.612C32.7741 30.284 33.5221 30.076 34.3541 29.988L34.4021 30.264C33.5061 30.464 32.7541 30.808 32.1461 31.296C31.5381 31.784 31.0821 32.38 30.7781 33.084C30.4741 33.788 30.3221 34.56 30.3221 35.4C30.3221 36.52 30.4661 37.368 30.7541 37.944C31.0421 38.512 31.4381 38.796 31.9421 38.796C32.2141 38.796 32.4581 38.708 32.6741 38.532C32.8901 38.356 33.0621 38.092 33.1901 37.74C33.3261 37.388 33.3941 36.944 33.3941 36.408C33.3941 35.688 33.2621 35.14 32.9981 34.764C32.7341 34.388 32.3621 34.2 31.8821 34.2C31.5781 34.2 31.2861 34.264 31.0061 34.392C30.7261 34.52 30.4501 34.74 30.1781 35.052L29.9501 34.908H30.0341C30.6341 34.06 31.4141 33.636 32.3741 33.636C32.8781 33.636 33.3021 33.748 33.6461 33.972C33.9981 34.196 34.2661 34.508 34.4501 34.908C34.6341 35.308 34.7261 35.772 34.7261 36.3C34.7261 36.852 34.6101 37.348 34.3781 37.788C34.1461 38.22 33.8181 38.564 33.3941 38.82C32.9781 39.068 32.4901 39.192 31.9301 39.192ZM38.7473 39.192C38.2433 39.192 37.7673 39.032 37.3193 38.712C36.8793 38.392 36.5193 37.892 36.2393 37.212C35.9593 36.532 35.8193 35.652 35.8193 34.572C35.8193 33.492 35.9593 32.616 36.2393 31.944C36.5193 31.272 36.8793 30.78 37.3193 30.468C37.7673 30.148 38.2433 29.988 38.7473 29.988C39.2513 29.988 39.7273 30.148 40.1753 30.468C40.6233 30.78 40.9833 31.272 41.2553 31.944C41.5273 32.616 41.6633 33.492 41.6633 34.572C41.6633 35.652 41.5273 36.532 41.2553 37.212C40.9833 37.892 40.6233 38.392 40.1753 38.712C39.7273 39.032 39.2513 39.192 38.7473 39.192ZM38.7473 38.796C38.9473 38.796 39.1433 38.728 39.3353 38.592C39.5353 38.456 39.7073 38.228 39.8513 37.908C40.0033 37.58 40.1233 37.144 40.2113 36.6C40.3073 36.056 40.3553 35.38 40.3553 34.572C40.3553 33.764 40.3073 33.092 40.2113 32.556C40.1233 32.012 40.0033 31.584 39.8513 31.272C39.7073 30.952 39.5353 30.724 39.3353 30.588C39.1433 30.452 38.9473 30.384 38.7473 30.384C38.5393 30.384 38.3393 30.452 38.1473 30.588C37.9553 30.724 37.7833 30.952 37.6313 31.272C37.4793 31.584 37.3593 32.012 37.2713 32.556C37.1833 33.092 37.1393 33.764 37.1393 34.572C37.1393 35.38 37.1833 36.06 37.2713 36.612C37.3593 37.156 37.4793 37.588 37.6313 37.908C37.7833 38.228 37.9553 38.456 38.1473 38.592C38.3393 38.728 38.5393 38.796 38.7473 38.796ZM43.5248 29.94V29.412L44.7728 29.94H52.3688V30.288H44.6768V39.552C44.6768 39.6 44.6328 39.656 44.5448 39.72C44.4568 39.792 44.3408 39.852 44.1968 39.9C44.0528 39.956 43.8968 39.984 43.7288 39.984H43.5248V29.94ZM51.7928 29.94H51.6728L52.2248 29.292L53.4608 30.24C53.4208 30.288 53.3568 30.336 53.2688 30.384C53.1808 30.432 53.0768 30.468 52.9568 30.492V38.496C52.9568 38.76 52.9168 38.992 52.8368 39.192C52.7648 39.392 52.6008 39.552 52.3448 39.672C52.0968 39.792 51.7088 39.876 51.1808 39.924C51.1568 39.748 51.1168 39.592 51.0608 39.456C51.0128 39.328 50.9328 39.224 50.8208 39.144C50.7088 39.056 50.5528 38.98 50.3528 38.916C50.1528 38.844 49.8688 38.784 49.5008 38.736V38.568C49.5008 38.568 49.5848 38.572 49.7528 38.58C49.9288 38.588 50.1328 38.604 50.3648 38.628C50.6048 38.644 50.8288 38.656 51.0368 38.664C51.2448 38.672 51.3888 38.676 51.4688 38.676C51.5888 38.676 51.6728 38.652 51.7208 38.604C51.7688 38.556 51.7928 38.48 51.7928 38.376V29.94ZM44.1368 34.272H52.3208V34.62H44.1368V34.272ZM47.6048 29.94H48.7568V34.512H47.6048V29.94ZM25.4688 53.216C24.9248 53.216 24.4088 53.116 23.9208 52.916C23.4328 52.708 23.0008 52.408 22.6248 52.016C22.2488 51.624 21.9528 51.14 21.7368 50.564C21.5208 49.988 21.4128 49.328 21.4128 48.584C21.4128 47.848 21.5208 47.196 21.7368 46.628C21.9528 46.052 22.2488 45.568 22.6248 45.176C23.0008 44.776 23.4328 44.476 23.9208 44.276C24.4088 44.068 24.9248 43.964 25.4688 43.964C26.0128 43.964 26.5248 44.064 27.0048 44.264C27.4928 44.464 27.9248 44.764 28.3008 45.164C28.6768 45.556 28.9728 46.04 29.1888 46.616C29.4048 47.184 29.5128 47.84 29.5128 48.584C29.5128 49.32 29.4048 49.976 29.1888 50.552C28.9728 51.128 28.6768 51.616 28.3008 52.016C27.9248 52.408 27.4928 52.708 27.0048 52.916C26.5248 53.116 26.0128 53.216 25.4688 53.216ZM25.4688 52.784C25.8928 52.784 26.2608 52.676 26.5728 52.46C26.8928 52.244 27.1568 51.948 27.3648 51.572C27.5728 51.188 27.7288 50.74 27.8328 50.228C27.9368 49.716 27.9888 49.168 27.9888 48.584C27.9888 48 27.9368 47.456 27.8328 46.952C27.7288 46.448 27.5728 46.004 27.3648 45.62C27.1568 45.236 26.8928 44.936 26.5728 44.72C26.2608 44.504 25.8928 44.396 25.4688 44.396C25.0448 44.396 24.6728 44.504 24.3528 44.72C24.0408 44.936 23.7768 45.236 23.5608 45.62C23.3528 46.004 23.1928 46.448 23.0808 46.952C22.9768 47.456 22.9248 48 22.9248 48.584C22.9248 49.168 22.9768 49.716 23.0808 50.228C23.1928 50.74 23.3528 51.188 23.5608 51.572C23.7768 51.948 24.0408 52.244 24.3528 52.46C24.6728 52.676 25.0448 52.784 25.4688 52.784ZM30.5174 53V52.616L32.2814 52.46H32.7014L34.5134 52.616V53H30.5174ZM31.6934 53C31.7094 52.32 31.7174 51.64 31.7174 50.96C31.7174 50.272 31.7174 49.584 31.7174 48.896V48.284C31.7174 47.596 31.7174 46.912 31.7174 46.232C31.7174 45.544 31.7094 44.86 31.6934 44.18H33.1814C33.1734 44.852 33.1654 45.536 33.1574 46.232C33.1574 46.928 33.1574 47.648 33.1574 48.392V48.692C33.1574 49.476 33.1574 50.22 33.1574 50.924C33.1654 51.62 33.1734 52.312 33.1814 53H31.6934ZM32.4374 48.716V48.308H35.4014V48.716H32.4374ZM35.2694 50L35.1014 48.668V48.332L35.2694 47.048H35.7614V50H35.2694ZM30.5174 44.552V44.18H32.4374V44.708H32.2814L30.5174 44.552ZM36.6014 46.424L36.0854 44.228L36.8174 44.612H32.4374V44.18H37.1414L37.1774 46.424H36.6014ZM38.0994 53V52.616L39.8634 52.46H40.2834L42.0954 52.616V53H38.0994ZM39.2754 53C39.2914 52.32 39.2994 51.64 39.2994 50.96C39.2994 50.272 39.2994 49.584 39.2994 48.896V48.284C39.2994 47.596 39.2994 46.912 39.2994 46.232C39.2994 45.544 39.2914 44.86 39.2754 44.18H40.7634C40.7554 44.852 40.7474 45.536 40.7394 46.232C40.7394 46.928 40.7394 47.648 40.7394 48.392V48.692C40.7394 49.476 40.7394 50.22 40.7394 50.924C40.7474 51.62 40.7554 52.312 40.7634 53H39.2754ZM40.0194 48.716V48.308H42.9834V48.716H40.0194ZM42.8514 50L42.6834 48.668V48.332L42.8514 47.048H43.3434V50H42.8514ZM38.0994 44.552V44.18H40.0194V44.708H39.8634L38.0994 44.552ZM44.1834 46.424L43.6674 44.228L44.3994 44.612H40.0194V44.18H44.7234L44.7594 46.424H44.1834Z" fill="#FFEAA7"/>
</svg>
