<svg width="334" height="156" viewBox="0 0 334 156" fill="none" xmlns="http://www.w3.org/2000/svg">
<rect width="334" height="156" rx="8" fill="#313131"/>
<path d="M16.136 80.5V68.98C16.136 68.5 16.152 67.932 16.184 67.276C16.216 66.604 16.24 66.028 16.256 65.548H16.16C15.936 65.996 15.704 66.452 15.464 66.916C15.24 67.38 15 67.836 14.744 68.284L11.288 73.588H20.96V75.748H8.48V73.9L15.512 62.812H18.728V80.5H16.136ZM25.2635 80.836C24.7515 80.836 24.3115 80.652 23.9435 80.284C23.5915 79.9 23.4155 79.428 23.4155 78.868C23.4155 78.292 23.5915 77.828 23.9435 77.476C24.3115 77.108 24.7515 76.924 25.2635 76.924C25.7915 76.924 26.2315 77.108 26.5835 77.476C26.9515 77.828 27.1355 78.292 27.1355 78.868C27.1355 79.428 26.9515 79.9 26.5835 80.284C26.2315 80.652 25.7915 80.836 25.2635 80.836ZM36.9719 80.5V68.98C36.9719 68.5 36.9879 67.932 37.0199 67.276C37.0519 66.604 37.0759 66.028 37.0919 65.548H36.9959C36.7719 65.996 36.5399 66.452 36.2999 66.916C36.0759 67.38 35.8359 67.836 35.5799 68.284L32.1239 73.588H41.7959V75.748H29.3159V73.9L36.3479 62.812H39.5639V80.5H36.9719ZM49.3874 80.836C48.2834 80.836 47.2994 80.636 46.4354 80.236C45.5714 79.82 44.8834 79.26 44.3714 78.556C43.8754 77.836 43.6274 77.02 43.6274 76.108C43.6274 75.324 43.7794 74.628 44.0834 74.02C44.3874 73.412 44.7794 72.892 45.2594 72.46C45.7394 72.012 46.2434 71.644 46.7714 71.356V71.236C46.1314 70.772 45.5794 70.204 45.1154 69.532C44.6514 68.844 44.4194 68.036 44.4194 67.108C44.4194 66.196 44.6354 65.396 45.0674 64.708C45.5154 64.02 46.1154 63.492 46.8674 63.124C47.6354 62.74 48.5074 62.548 49.4834 62.548C50.5074 62.548 51.3874 62.748 52.1234 63.148C52.8594 63.548 53.4274 64.1 53.8274 64.804C54.2434 65.492 54.4514 66.3 54.4514 67.228C54.4514 67.82 54.3314 68.38 54.0914 68.908C53.8514 69.436 53.5554 69.916 53.2034 70.348C52.8674 70.764 52.5074 71.108 52.1234 71.38V71.5C52.6674 71.788 53.1634 72.148 53.6114 72.58C54.0594 72.996 54.4194 73.5 54.6914 74.092C54.9634 74.684 55.0994 75.38 55.0994 76.18C55.0994 77.044 54.8594 77.828 54.3794 78.532C53.9154 79.236 53.2514 79.796 52.3874 80.212C51.5394 80.628 50.5394 80.836 49.3874 80.836ZM50.5634 70.684C51.0754 70.188 51.4594 69.668 51.7154 69.124C51.9874 68.564 52.1234 67.98 52.1234 67.372C52.1234 66.844 52.0194 66.364 51.8114 65.932C51.6034 65.5 51.2914 65.164 50.8754 64.924C50.4754 64.668 49.9874 64.54 49.4114 64.54C48.6914 64.54 48.0914 64.772 47.6114 65.236C47.1314 65.684 46.8914 66.308 46.8914 67.108C46.8914 67.748 47.0594 68.284 47.3954 68.716C47.7314 69.148 48.1794 69.516 48.7394 69.82C49.2994 70.124 49.9074 70.412 50.5634 70.684ZM49.4594 78.82C50.0514 78.82 50.5714 78.708 51.0194 78.484C51.4834 78.26 51.8434 77.948 52.0994 77.548C52.3554 77.132 52.4834 76.644 52.4834 76.084C52.4834 75.556 52.3714 75.1 52.1474 74.716C51.9234 74.316 51.6114 73.972 51.2114 73.684C50.8274 73.396 50.3714 73.132 49.8434 72.892C49.3154 72.636 48.7474 72.388 48.1394 72.148C47.5314 72.58 47.0354 73.116 46.6514 73.756C46.2674 74.38 46.0754 75.068 46.0754 75.82C46.0754 76.412 46.2194 76.932 46.5074 77.38C46.8114 77.828 47.2194 78.18 47.7314 78.436C48.2434 78.692 48.8194 78.82 49.4594 78.82Z" fill="#FFEAA7"/>
<path d="M8.144 99.66L11.48 87.912H12.428L9.116 99.66H8.144ZM18.5871 97.668C18.1311 97.668 17.7231 97.612 17.3631 97.5C17.0031 97.388 16.6871 97.24 16.4151 97.056C16.1431 96.872 15.9031 96.68 15.6951 96.48L16.3551 95.58C16.5231 95.748 16.7071 95.904 16.9071 96.048C17.1071 96.184 17.3311 96.296 17.5791 96.384C17.8351 96.472 18.1191 96.516 18.4311 96.516C18.7591 96.516 19.0551 96.444 19.3191 96.3C19.5831 96.148 19.7911 95.932 19.9431 95.652C20.0951 95.364 20.1711 95.024 20.1711 94.632C20.1711 94.056 20.0151 93.608 19.7031 93.288C19.3991 92.968 18.9951 92.808 18.4911 92.808C18.2111 92.808 17.9711 92.848 17.7711 92.928C17.5711 93.008 17.3431 93.132 17.0871 93.3L16.4031 92.856L16.6671 88.656H21.1431V89.832H17.8671L17.6631 92.088C17.8551 91.992 18.0471 91.92 18.2391 91.872C18.4311 91.816 18.6431 91.788 18.8751 91.788C19.3711 91.788 19.8231 91.888 20.2311 92.088C20.6391 92.288 20.9631 92.596 21.2031 93.012C21.4431 93.42 21.5631 93.948 21.5631 94.596C21.5631 95.244 21.4231 95.8 21.1431 96.264C20.8631 96.72 20.4951 97.068 20.0391 97.308C19.5911 97.548 19.1071 97.668 18.5871 97.668ZM24.0028 97.668C23.7468 97.668 23.5268 97.576 23.3428 97.392C23.1668 97.2 23.0788 96.964 23.0788 96.684C23.0788 96.396 23.1668 96.164 23.3428 95.988C23.5268 95.804 23.7468 95.712 24.0028 95.712C24.2668 95.712 24.4868 95.804 24.6628 95.988C24.8468 96.164 24.9388 96.396 24.9388 96.684C24.9388 96.964 24.8468 97.2 24.6628 97.392C24.4868 97.576 24.2668 97.668 24.0028 97.668ZM29.2211 97.668C28.6451 97.668 28.1411 97.496 27.7091 97.152C27.2771 96.808 26.9411 96.296 26.7011 95.616C26.4691 94.928 26.3531 94.072 26.3531 93.048C26.3531 92.024 26.4691 91.176 26.7011 90.504C26.9411 89.832 27.2771 89.332 27.7091 89.004C28.1411 88.668 28.6451 88.5 29.2211 88.5C29.7971 88.5 30.2971 88.668 30.7211 89.004C31.1451 89.34 31.4731 89.844 31.7051 90.516C31.9451 91.18 32.0651 92.024 32.0651 93.048C32.0651 94.072 31.9451 94.928 31.7051 95.616C31.4731 96.296 31.1451 96.808 30.7211 97.152C30.2971 97.496 29.7971 97.668 29.2211 97.668ZM29.2211 96.564C29.5171 96.564 29.7811 96.448 30.0131 96.216C30.2451 95.984 30.4251 95.612 30.5531 95.1C30.6811 94.58 30.7451 93.896 30.7451 93.048C30.7451 92.2 30.6811 91.524 30.5531 91.02C30.4251 90.516 30.2451 90.152 30.0131 89.928C29.7811 89.704 29.5171 89.592 29.2211 89.592C28.9251 89.592 28.6611 89.704 28.4291 89.928C28.1971 90.152 28.0131 90.516 27.8771 91.02C27.7491 91.524 27.6851 92.2 27.6851 93.048C27.6851 93.896 27.7491 94.58 27.8771 95.1C28.0131 95.612 28.1971 95.984 28.4291 96.216C28.6611 96.448 28.9251 96.564 29.2211 96.564ZM36.0648 97.668C35.4888 97.668 34.9848 97.496 34.5528 97.152C34.1208 96.808 33.7848 96.296 33.5448 95.616C33.3128 94.928 33.1968 94.072 33.1968 93.048C33.1968 92.024 33.3128 91.176 33.5448 90.504C33.7848 89.832 34.1208 89.332 34.5528 89.004C34.9848 88.668 35.4888 88.5 36.0648 88.5C36.6408 88.5 37.1408 88.668 37.5648 89.004C37.9888 89.34 38.3168 89.844 38.5488 90.516C38.7888 91.18 38.9088 92.024 38.9088 93.048C38.9088 94.072 38.7888 94.928 38.5488 95.616C38.3168 96.296 37.9888 96.808 37.5648 97.152C37.1408 97.496 36.6408 97.668 36.0648 97.668ZM36.0648 96.564C36.3608 96.564 36.6248 96.448 36.8568 96.216C37.0888 95.984 37.2688 95.612 37.3968 95.1C37.5248 94.58 37.5888 93.896 37.5888 93.048C37.5888 92.2 37.5248 91.524 37.3968 91.02C37.2688 90.516 37.0888 90.152 36.8568 89.928C36.6248 89.704 36.3608 89.592 36.0648 89.592C35.7688 89.592 35.5048 89.704 35.2728 89.928C35.0408 90.152 34.8568 90.516 34.7208 91.02C34.5928 91.524 34.5288 92.2 34.5288 93.048C34.5288 93.896 34.5928 94.58 34.7208 95.1C34.8568 95.612 35.0408 95.984 35.2728 96.216C35.5048 96.448 35.7688 96.564 36.0648 96.564Z" fill="white" fill-opacity="0.5"/>
<path d="M90.875 16.5625L92.9062 20.7188L97.375 21.375C97.75 21.4375 98.0625 21.6875 98.1875 22.0625C98.3125 22.4062 98.2188 22.8125 97.9375 23.0625L94.6875 26.2812L95.4688 30.8438C95.5312 31.2188 95.375 31.5938 95.0625 31.8125C94.75 32.0625 94.3438 32.0625 94 31.9062L90 29.75L85.9688 31.9062C85.6562 32.0625 85.25 32.0625 84.9375 31.8125C84.625 31.5938 84.4688 31.2188 84.5312 30.8438L85.2812 26.2812L82.0312 23.0625C81.7812 22.8125 81.6875 22.4062 81.7812 22.0625C81.9062 21.6875 82.2188 21.4375 82.5938 21.375L87.0938 20.7188L89.0938 16.5625C89.25 16.2188 89.5938 16 90 16C90.375 16 90.7188 16.2188 90.875 16.5625Z" fill="#FFEAA7"/>
<path d="M110.875 16.5625L112.906 20.7188L117.375 21.375C117.75 21.4375 118.062 21.6875 118.188 22.0625C118.312 22.4062 118.219 22.8125 117.938 23.0625L114.688 26.2812L115.469 30.8438C115.531 31.2188 115.375 31.5938 115.062 31.8125C114.75 32.0625 114.344 32.0625 114 31.9062L110 29.75L105.969 31.9062C105.656 32.0625 105.25 32.0625 104.938 31.8125C104.625 31.5938 104.469 31.2188 104.531 30.8438L105.281 26.2812L102.031 23.0625C101.781 22.8125 101.688 22.4062 101.781 22.0625C101.906 21.6875 102.219 21.4375 102.594 21.375L107.094 20.7188L109.094 16.5625C109.25 16.2188 109.594 16 110 16C110.375 16 110.719 16.2188 110.875 16.5625Z" fill="#FFEAA7"/>
<path d="M130.875 16.5625L132.906 20.7188L137.375 21.375C137.75 21.4375 138.062 21.6875 138.188 22.0625C138.312 22.4062 138.219 22.8125 137.938 23.0625L134.688 26.2812L135.469 30.8438C135.531 31.2188 135.375 31.5938 135.062 31.8125C134.75 32.0625 134.344 32.0625 134 31.9062L130 29.75L125.969 31.9062C125.656 32.0625 125.25 32.0625 124.938 31.8125C124.625 31.5938 124.469 31.2188 124.531 30.8438L125.281 26.2812L122.031 23.0625C121.781 22.8125 121.688 22.4062 121.781 22.0625C121.906 21.6875 122.219 21.4375 122.594 21.375L127.094 20.7188L129.094 16.5625C129.25 16.2188 129.594 16 130 16C130.375 16 130.719 16.2188 130.875 16.5625Z" fill="#FFEAA7"/>
<path d="M150.875 16.5625L152.906 20.7188L157.375 21.375C157.75 21.4375 158.062 21.6875 158.188 22.0625C158.312 22.4062 158.219 22.8125 157.938 23.0625L154.688 26.2812L155.469 30.8438C155.531 31.2188 155.375 31.5938 155.062 31.8125C154.75 32.0625 154.344 32.0625 154 31.9062L150 29.75L145.969 31.9062C145.656 32.0625 145.25 32.0625 144.938 31.8125C144.625 31.5938 144.469 31.2188 144.531 30.8438L145.281 26.2812L142.031 23.0625C141.781 22.8125 141.688 22.4062 141.781 22.0625C141.906 21.6875 142.219 21.4375 142.594 21.375L147.094 20.7188L149.094 16.5625C149.25 16.2188 149.594 16 150 16C150.375 16 150.719 16.2188 150.875 16.5625Z" fill="#FFEAA7"/>
<path d="M170 27.7812L170.812 28.2188L173.469 29.625L172.969 26.5938L172.812 25.6875L173.469 25.0625L175.656 22.875L172.656 22.4375L171.719 22.3125L171.312 21.4688L170 18.7188V18.75V27.7812ZM175.469 30.8438C175.531 31.2188 175.375 31.5938 175.062 31.8125C174.75 32.0625 174.344 32.0625 174 31.9062L170 29.75L165.969 31.9062C165.656 32.0625 165.219 32.0625 164.938 31.8125C164.625 31.5938 164.469 31.2188 164.531 30.8438L165.281 26.2812L162.031 23.0625C161.781 22.8125 161.656 22.4062 161.781 22.0625C161.906 21.6875 162.219 21.4375 162.594 21.375L167.094 20.7188L169.094 16.5625C169.25 16.2188 169.594 16 170 16C170.375 16 170.719 16.2188 170.906 16.5625L172.906 20.7188L177.375 21.375C177.75 21.4375 178.062 21.6875 178.188 22.0625C178.312 22.4062 178.219 22.8125 177.938 23.0625L174.688 26.2812L175.469 30.8438Z" fill="#FFEAA7"/>
<path d="M82.02 52V50.86H83.964V44.716H82.38V43.84C82.796 43.768 83.156 43.676 83.46 43.564C83.772 43.452 84.056 43.316 84.312 43.156H85.356V50.86H87.072V52H82.02ZM90.1598 52C90.1998 51.192 90.2678 50.452 90.3638 49.78C90.4598 49.1 90.5998 48.46 90.7838 47.86C90.9678 47.252 91.2078 46.664 91.5038 46.096C91.7998 45.52 92.1598 44.932 92.5838 44.332H88.4438V43.156H94.1198V44.008C93.6078 44.648 93.1918 45.268 92.8718 45.868C92.5518 46.46 92.3038 47.064 92.1278 47.68C91.9518 48.296 91.8238 48.956 91.7438 49.66C91.6638 50.356 91.6078 51.136 91.5758 52H90.1598ZM98.7555 52V46.24C98.7555 46 98.7635 45.716 98.7795 45.388C98.7955 45.052 98.8075 44.764 98.8155 44.524H98.7675C98.6555 44.748 98.5395 44.976 98.4195 45.208C98.3075 45.44 98.1875 45.668 98.0595 45.892L96.3315 48.544H101.168V49.624H94.9275V48.7L98.4435 43.156H100.052V52H98.7555ZM108.695 42.016H109.835V53.008H108.695V42.016ZM106.631 42.496L107.723 42.724C107.619 43.268 107.487 43.812 107.327 44.356C107.167 44.892 106.987 45.392 106.787 45.856C106.595 46.32 106.387 46.732 106.163 47.092C106.091 47.036 105.995 46.976 105.875 46.912C105.755 46.84 105.631 46.772 105.503 46.708C105.383 46.636 105.275 46.58 105.179 46.54C105.411 46.212 105.619 45.832 105.803 45.4C105.987 44.968 106.147 44.504 106.283 44.008C106.427 43.512 106.543 43.008 106.631 42.496ZM106.907 44.272H112.487V45.388H106.619L106.907 44.272ZM105.323 47.776H113.039V48.892H105.323V47.776ZM104.615 41.92L105.683 42.244C105.435 42.924 105.139 43.6 104.795 44.272C104.459 44.936 104.091 45.568 103.691 46.168C103.299 46.76 102.891 47.284 102.467 47.74C102.435 47.644 102.379 47.524 102.299 47.38C102.227 47.236 102.147 47.092 102.059 46.948C101.979 46.796 101.907 46.676 101.843 46.588C102.211 46.204 102.563 45.764 102.899 45.268C103.243 44.764 103.563 44.228 103.859 43.66C104.155 43.084 104.407 42.504 104.615 41.92ZM103.403 45.1L104.483 44.032L104.495 44.044V52.996H103.403V45.1ZM120.443 43.792C120.363 44.408 120.259 45.06 120.131 45.748C120.011 46.428 119.847 47.104 119.639 47.776C119.399 48.592 119.127 49.284 118.823 49.852C118.527 50.412 118.203 50.84 117.851 51.136C117.499 51.432 117.127 51.58 116.735 51.58C116.335 51.58 115.963 51.444 115.619 51.172C115.275 50.892 114.995 50.504 114.779 50.008C114.563 49.504 114.455 48.92 114.455 48.256C114.455 47.584 114.591 46.948 114.863 46.348C115.143 45.748 115.527 45.216 116.015 44.752C116.503 44.288 117.071 43.924 117.719 43.66C118.367 43.396 119.067 43.264 119.819 43.264C120.539 43.264 121.187 43.38 121.763 43.612C122.347 43.844 122.843 44.168 123.251 44.584C123.667 44.992 123.983 45.472 124.199 46.024C124.415 46.576 124.523 47.164 124.523 47.788C124.523 48.628 124.347 49.376 123.995 50.032C123.651 50.68 123.143 51.212 122.471 51.628C121.799 52.036 120.975 52.312 119.999 52.456L119.291 51.328C119.499 51.304 119.691 51.28 119.867 51.256C120.043 51.224 120.207 51.192 120.359 51.16C120.743 51.072 121.107 50.936 121.451 50.752C121.803 50.568 122.115 50.336 122.387 50.056C122.659 49.768 122.871 49.432 123.023 49.048C123.183 48.664 123.263 48.232 123.263 47.752C123.263 47.272 123.187 46.828 123.035 46.42C122.883 46.004 122.659 45.644 122.363 45.34C122.067 45.036 121.703 44.8 121.271 44.632C120.839 44.456 120.351 44.368 119.807 44.368C119.151 44.368 118.567 44.484 118.055 44.716C117.543 44.948 117.107 45.256 116.747 45.64C116.395 46.016 116.127 46.424 115.943 46.864C115.759 47.304 115.667 47.728 115.667 48.136C115.667 48.592 115.723 48.972 115.835 49.276C115.947 49.572 116.087 49.792 116.255 49.936C116.423 50.08 116.595 50.152 116.771 50.152C116.947 50.152 117.127 50.064 117.311 49.888C117.495 49.704 117.679 49.416 117.863 49.024C118.055 48.632 118.243 48.132 118.427 47.524C118.611 46.948 118.763 46.336 118.883 45.688C119.011 45.032 119.103 44.392 119.159 43.768L120.443 43.792ZM128.051 51.58C128.107 51.46 128.143 51.352 128.159 51.256C128.175 51.152 128.183 51.036 128.183 50.908C128.183 50.772 128.183 50.544 128.183 50.224C128.183 49.896 128.183 49.516 128.183 49.084C128.183 48.644 128.183 48.184 128.183 47.704C128.183 47.224 128.183 46.756 128.183 46.3C128.183 45.836 128.183 45.42 128.183 45.052C128.183 44.684 128.183 44.4 128.183 44.2C128.183 44.072 128.175 43.932 128.159 43.78C128.151 43.62 128.139 43.472 128.123 43.336C128.115 43.192 128.099 43.076 128.075 42.988H129.563C129.539 43.164 129.515 43.36 129.491 43.576C129.475 43.792 129.467 43.996 129.467 44.188C129.467 44.364 129.467 44.6 129.467 44.896C129.467 45.192 129.467 45.524 129.467 45.892C129.467 46.26 129.467 46.648 129.467 47.056C129.467 47.456 129.467 47.852 129.467 48.244C129.467 48.636 129.467 49.004 129.467 49.348C129.467 49.684 129.467 49.976 129.467 50.224C129.467 50.472 129.467 50.648 129.467 50.752C130.003 50.608 130.563 50.408 131.147 50.152C131.739 49.896 132.323 49.592 132.899 49.24C133.475 48.88 134.015 48.488 134.519 48.064C135.031 47.64 135.475 47.192 135.851 46.72L136.535 47.776C135.735 48.752 134.731 49.604 133.523 50.332C132.323 51.052 130.995 51.636 129.539 52.084C129.467 52.108 129.375 52.14 129.263 52.18C129.159 52.22 129.051 52.272 128.939 52.336L128.051 51.58ZM146.327 42.46C146.431 42.596 146.539 42.764 146.651 42.964C146.771 43.164 146.887 43.364 146.999 43.564C147.111 43.764 147.207 43.944 147.287 44.104L146.507 44.44C146.387 44.2 146.235 43.92 146.051 43.6C145.875 43.28 145.707 43.008 145.547 42.784L146.327 42.46ZM147.683 41.956C147.787 42.1 147.899 42.272 148.019 42.472C148.147 42.672 148.271 42.872 148.391 43.072C148.511 43.264 148.603 43.436 148.667 43.588L147.887 43.924C147.767 43.668 147.615 43.388 147.431 43.084C147.255 42.772 147.083 42.504 146.915 42.28L147.683 41.956ZM141.023 42.904C141.007 43.064 140.991 43.244 140.975 43.444C140.959 43.644 140.951 43.832 140.951 44.008C140.951 44.112 140.951 44.32 140.951 44.632C140.951 44.936 140.951 45.3 140.951 45.724C140.951 46.14 140.951 46.58 140.951 47.044C140.951 47.5 140.951 47.944 140.951 48.376C140.951 48.8 140.951 49.176 140.951 49.504C140.951 49.832 140.951 50.068 140.951 50.212C140.951 50.5 141.015 50.7 141.143 50.812C141.279 50.916 141.487 50.996 141.767 51.052C141.951 51.076 142.175 51.096 142.439 51.112C142.711 51.128 142.987 51.136 143.267 51.136C143.579 51.136 143.923 51.128 144.299 51.112C144.675 51.096 145.051 51.072 145.427 51.04C145.811 51.008 146.175 50.968 146.519 50.92C146.863 50.864 147.159 50.804 147.407 50.74V52.12C147.047 52.168 146.619 52.208 146.123 52.24C145.635 52.28 145.135 52.308 144.623 52.324C144.111 52.348 143.635 52.36 143.195 52.36C142.827 52.36 142.471 52.348 142.127 52.324C141.783 52.308 141.483 52.28 141.227 52.24C140.747 52.152 140.371 51.98 140.099 51.724C139.835 51.46 139.703 51.076 139.703 50.572C139.703 50.364 139.703 50.076 139.703 49.708C139.703 49.34 139.703 48.928 139.703 48.472C139.703 48.016 139.703 47.552 139.703 47.08C139.703 46.6 139.703 46.152 139.703 45.736C139.703 45.312 139.703 44.948 139.703 44.644C139.703 44.332 139.703 44.12 139.703 44.008C139.703 43.912 139.699 43.8 139.691 43.672C139.683 43.536 139.675 43.404 139.667 43.276C139.659 43.14 139.643 43.016 139.619 42.904H141.023ZM140.399 46.648C140.767 46.568 141.167 46.472 141.599 46.36C142.039 46.24 142.479 46.112 142.919 45.976C143.367 45.84 143.799 45.7 144.215 45.556C144.631 45.404 145.003 45.256 145.331 45.112C145.531 45.032 145.727 44.944 145.919 44.848C146.111 44.752 146.303 44.644 146.495 44.524L147.023 45.736C146.823 45.816 146.611 45.904 146.387 46C146.163 46.088 145.955 46.172 145.763 46.252C145.403 46.396 144.995 46.544 144.539 46.696C144.083 46.848 143.611 47 143.123 47.152C142.635 47.296 142.155 47.432 141.683 47.56C141.219 47.688 140.791 47.8 140.399 47.896V46.648ZM158.483 46.288C158.467 46.352 158.451 46.424 158.435 46.504C158.419 46.584 158.403 46.656 158.387 46.72C158.371 46.888 158.339 47.128 158.291 47.44C158.251 47.744 158.203 48.08 158.147 48.448C158.091 48.816 158.035 49.184 157.979 49.552C157.923 49.912 157.871 50.244 157.823 50.548C157.783 50.852 157.747 51.088 157.715 51.256H156.431C156.455 51.112 156.487 50.904 156.527 50.632C156.575 50.352 156.627 50.044 156.683 49.708C156.739 49.372 156.791 49.032 156.839 48.688C156.887 48.344 156.927 48.032 156.959 47.752C156.999 47.464 157.019 47.244 157.019 47.092C156.883 47.092 156.687 47.092 156.431 47.092C156.175 47.092 155.891 47.092 155.579 47.092C155.267 47.092 154.959 47.092 154.655 47.092C154.359 47.092 154.103 47.092 153.887 47.092C153.671 47.092 153.527 47.092 153.455 47.092C153.279 47.092 153.095 47.096 152.903 47.104C152.719 47.112 152.547 47.12 152.387 47.128V45.88C152.491 45.888 152.603 45.9 152.723 45.916C152.851 45.924 152.979 45.932 153.107 45.94C153.235 45.94 153.347 45.94 153.443 45.94C153.547 45.94 153.711 45.94 153.935 45.94C154.159 45.94 154.407 45.94 154.679 45.94C154.959 45.94 155.243 45.94 155.531 45.94C155.819 45.94 156.079 45.94 156.311 45.94C156.543 45.94 156.723 45.94 156.851 45.94C156.923 45.94 157.007 45.936 157.103 45.928C157.199 45.92 157.291 45.908 157.379 45.892C157.467 45.876 157.531 45.86 157.571 45.844L158.483 46.288ZM151.271 50.788C151.431 50.804 151.603 50.82 151.787 50.836C151.971 50.844 152.159 50.848 152.351 50.848C152.463 50.848 152.683 50.848 153.011 50.848C153.339 50.848 153.727 50.848 154.175 50.848C154.631 50.848 155.103 50.848 155.591 50.848C156.087 50.848 156.559 50.848 157.007 50.848C157.455 50.848 157.839 50.848 158.159 50.848C158.479 50.848 158.691 50.848 158.795 50.848C158.931 50.848 159.103 50.844 159.311 50.836C159.519 50.828 159.695 50.816 159.839 50.8V52.024C159.759 52.016 159.655 52.008 159.527 52C159.407 52 159.283 52 159.155 52C159.027 52 158.915 52 158.819 52C158.715 52 158.495 52 158.159 52C157.831 52 157.439 52 156.983 52C156.535 52 156.063 52 155.567 52C155.071 52 154.595 52 154.139 52C153.691 52 153.307 52 152.987 52C152.667 52 152.455 52 152.351 52C152.159 52 151.983 52 151.823 52C151.663 52.008 151.479 52.016 151.271 52.024V50.788ZM162.695 46.648C162.831 46.656 162.995 46.668 163.187 46.684C163.387 46.692 163.599 46.7 163.823 46.708C164.055 46.716 164.275 46.72 164.483 46.72C164.643 46.72 164.863 46.72 165.143 46.72C165.423 46.72 165.739 46.72 166.091 46.72C166.451 46.72 166.827 46.72 167.219 46.72C167.611 46.72 167.999 46.72 168.383 46.72C168.775 46.72 169.143 46.72 169.487 46.72C169.831 46.72 170.135 46.72 170.399 46.72C170.663 46.72 170.867 46.72 171.011 46.72C171.299 46.72 171.559 46.712 171.791 46.696C172.023 46.672 172.211 46.656 172.355 46.648V48.136C172.219 48.128 172.027 48.116 171.779 48.1C171.531 48.084 171.275 48.076 171.011 48.076C170.875 48.076 170.671 48.076 170.399 48.076C170.135 48.076 169.831 48.076 169.487 48.076C169.143 48.076 168.775 48.076 168.383 48.076C167.999 48.076 167.611 48.076 167.219 48.076C166.827 48.076 166.451 48.076 166.091 48.076C165.739 48.076 165.423 48.076 165.143 48.076C164.863 48.076 164.643 48.076 164.483 48.076C164.155 48.076 163.827 48.084 163.499 48.1C163.171 48.108 162.903 48.12 162.695 48.136V46.648ZM181.703 47.44C181.703 46.624 181.803 45.868 182.003 45.172C182.211 44.476 182.495 43.84 182.855 43.264C183.215 42.688 183.623 42.168 184.079 41.704L184.991 42.136C184.551 42.592 184.167 43.092 183.839 43.636C183.511 44.172 183.251 44.756 183.059 45.388C182.875 46.012 182.783 46.696 182.783 47.44C182.783 48.176 182.875 48.86 183.059 49.492C183.251 50.124 183.511 50.708 183.839 51.244C184.167 51.78 184.551 52.28 184.991 52.744L184.079 53.176C183.623 52.712 183.215 52.192 182.855 51.616C182.495 51.04 182.211 50.404 182.003 49.708C181.803 49.004 181.703 48.248 181.703 47.44ZM186.059 52V51.196C186.931 50.42 187.659 49.712 188.243 49.072C188.827 48.424 189.263 47.824 189.551 47.272C189.847 46.72 189.995 46.204 189.995 45.724C189.995 45.404 189.939 45.124 189.827 44.884C189.723 44.636 189.559 44.448 189.335 44.32C189.119 44.184 188.843 44.116 188.507 44.116C188.163 44.116 187.847 44.212 187.559 44.404C187.271 44.588 187.007 44.816 186.767 45.088L185.987 44.32C186.363 43.904 186.759 43.58 187.175 43.348C187.599 43.116 188.103 43 188.687 43C189.223 43 189.691 43.112 190.091 43.336C190.491 43.552 190.799 43.86 191.015 44.26C191.239 44.652 191.351 45.116 191.351 45.652C191.351 46.22 191.211 46.796 190.931 47.38C190.651 47.956 190.267 48.54 189.779 49.132C189.291 49.716 188.735 50.308 188.111 50.908C188.343 50.884 188.587 50.864 188.843 50.848C189.107 50.824 189.343 50.812 189.551 50.812H191.771V52H186.059ZM195.807 52.168C195.231 52.168 194.727 51.996 194.295 51.652C193.863 51.308 193.527 50.796 193.287 50.116C193.055 49.428 192.939 48.572 192.939 47.548C192.939 46.524 193.055 45.676 193.287 45.004C193.527 44.332 193.863 43.832 194.295 43.504C194.727 43.168 195.231 43 195.807 43C196.383 43 196.883 43.168 197.307 43.504C197.731 43.84 198.059 44.344 198.291 45.016C198.531 45.68 198.651 46.524 198.651 47.548C198.651 48.572 198.531 49.428 198.291 50.116C198.059 50.796 197.731 51.308 197.307 51.652C196.883 51.996 196.383 52.168 195.807 52.168ZM195.807 51.064C196.103 51.064 196.367 50.948 196.599 50.716C196.831 50.484 197.011 50.112 197.139 49.6C197.267 49.08 197.331 48.396 197.331 47.548C197.331 46.7 197.267 46.024 197.139 45.52C197.011 45.016 196.831 44.652 196.599 44.428C196.367 44.204 196.103 44.092 195.807 44.092C195.511 44.092 195.247 44.204 195.015 44.428C194.783 44.652 194.599 45.016 194.463 45.52C194.335 46.024 194.271 46.7 194.271 47.548C194.271 48.396 194.335 49.08 194.463 49.6C194.599 50.112 194.783 50.484 195.015 50.716C195.247 50.948 195.511 51.064 195.807 51.064ZM199.747 52V51.196C200.619 50.42 201.347 49.712 201.931 49.072C202.515 48.424 202.951 47.824 203.239 47.272C203.535 46.72 203.683 46.204 203.683 45.724C203.683 45.404 203.627 45.124 203.515 44.884C203.411 44.636 203.247 44.448 203.023 44.32C202.807 44.184 202.531 44.116 202.195 44.116C201.851 44.116 201.535 44.212 201.247 44.404C200.959 44.588 200.695 44.816 200.455 45.088L199.675 44.32C200.051 43.904 200.447 43.58 200.863 43.348C201.287 43.116 201.791 43 202.375 43C202.911 43 203.379 43.112 203.779 43.336C204.179 43.552 204.487 43.86 204.703 44.26C204.927 44.652 205.039 45.116 205.039 45.652C205.039 46.22 204.899 46.796 204.619 47.38C204.339 47.956 203.955 48.54 203.467 49.132C202.979 49.716 202.423 50.308 201.799 50.908C202.031 50.884 202.275 50.864 202.531 50.848C202.795 50.824 203.031 50.812 203.239 50.812H205.459V52H199.747ZM210.131 52V46.24C210.131 46 210.139 45.716 210.155 45.388C210.171 45.052 210.183 44.764 210.191 44.524H210.143C210.031 44.748 209.915 44.976 209.795 45.208C209.683 45.44 209.563 45.668 209.435 45.892L207.707 48.544H212.543V49.624H206.303V48.7L209.819 43.156H211.427V52H210.131ZM216.086 41.824L217.238 42.124C217.014 42.708 216.754 43.284 216.458 43.852C216.162 44.412 215.842 44.932 215.498 45.412C215.154 45.892 214.794 46.312 214.418 46.672C214.346 46.608 214.25 46.528 214.13 46.432C214.018 46.336 213.898 46.244 213.77 46.156C213.65 46.06 213.542 45.988 213.446 45.94C213.822 45.612 214.174 45.232 214.502 44.8C214.83 44.36 215.126 43.888 215.39 43.384C215.662 42.872 215.894 42.352 216.086 41.824ZM216.086 43.264H223.778V44.356H215.534L216.086 43.264ZM215.39 46.036H223.502V47.092H216.518V49.792H215.39V46.036ZM213.434 49.228H224.39V50.332H213.434V49.228ZM218.954 43.828H220.118V53.008H218.954V43.828ZM228.602 52.168C228.178 52.168 227.782 52.08 227.414 51.904C227.046 51.72 226.722 51.448 226.442 51.088C226.162 50.72 225.942 50.26 225.782 49.708C225.622 49.156 225.542 48.504 225.542 47.752C225.542 46.904 225.634 46.18 225.818 45.58C226.002 44.972 226.25 44.48 226.562 44.104C226.874 43.728 227.23 43.452 227.63 43.276C228.03 43.092 228.446 43 228.878 43C229.374 43 229.802 43.092 230.162 43.276C230.53 43.46 230.838 43.684 231.086 43.948L230.33 44.788C230.17 44.596 229.966 44.44 229.718 44.32C229.47 44.192 229.214 44.128 228.95 44.128C228.566 44.128 228.21 44.244 227.882 44.476C227.562 44.7 227.306 45.076 227.114 45.604C226.922 46.132 226.826 46.848 226.826 47.752C226.826 48.512 226.898 49.14 227.042 49.636C227.186 50.124 227.39 50.492 227.654 50.74C227.918 50.98 228.226 51.1 228.578 51.1C228.842 51.1 229.074 51.024 229.274 50.872C229.482 50.72 229.646 50.508 229.766 50.236C229.886 49.956 229.946 49.628 229.946 49.252C229.946 48.876 229.89 48.556 229.778 48.292C229.666 48.028 229.502 47.828 229.286 47.692C229.078 47.556 228.818 47.488 228.506 47.488C228.242 47.488 227.958 47.572 227.654 47.74C227.358 47.908 227.074 48.196 226.802 48.604L226.754 47.596C226.922 47.356 227.118 47.156 227.342 46.996C227.566 46.828 227.798 46.7 228.038 46.612C228.286 46.524 228.522 46.48 228.746 46.48C229.242 46.48 229.674 46.584 230.042 46.792C230.418 46.992 230.71 47.296 230.918 47.704C231.134 48.112 231.242 48.628 231.242 49.252C231.242 49.836 231.118 50.348 230.87 50.788C230.63 51.22 230.31 51.56 229.91 51.808C229.518 52.048 229.082 52.168 228.602 52.168ZM234.882 42.472H241.026V43.576H234.882V42.472ZM234.882 45.352H241.074V46.432H234.882V45.352ZM234.798 48.232H241.002V49.324H234.798V48.232ZM234.126 42.472H235.29V46.3C235.29 46.82 235.262 47.38 235.206 47.98C235.15 48.572 235.042 49.172 234.882 49.78C234.722 50.388 234.486 50.972 234.174 51.532C233.862 52.084 233.446 52.58 232.926 53.02C232.87 52.94 232.79 52.844 232.686 52.732C232.582 52.628 232.474 52.524 232.362 52.42C232.25 52.324 232.15 52.248 232.062 52.192C232.534 51.784 232.906 51.336 233.178 50.848C233.458 50.36 233.666 49.856 233.802 49.336C233.938 48.816 234.026 48.296 234.066 47.776C234.106 47.256 234.126 46.76 234.126 46.288V42.472ZM240.51 42.472H241.71V51.46C241.71 51.828 241.654 52.108 241.542 52.3C241.438 52.5 241.262 52.648 241.014 52.744C240.758 52.848 240.418 52.912 239.994 52.936C239.578 52.96 239.05 52.972 238.41 52.972C238.394 52.852 238.358 52.72 238.302 52.576C238.246 52.432 238.186 52.288 238.122 52.144C238.066 52 238.006 51.876 237.942 51.772C238.254 51.788 238.558 51.8 238.854 51.808C239.158 51.808 239.422 51.808 239.646 51.808C239.878 51.8 240.042 51.796 240.138 51.796C240.274 51.796 240.37 51.772 240.426 51.724C240.482 51.668 240.51 51.576 240.51 51.448V42.472ZM249.318 47.86C249.03 47.564 248.742 47.336 248.454 47.176C248.174 47.008 247.822 46.924 247.398 46.924C246.958 46.924 246.554 47.064 246.186 47.344C245.826 47.624 245.526 47.992 245.286 48.448L244.23 47.872C244.622 47.16 245.09 46.624 245.634 46.264C246.186 45.904 246.778 45.724 247.41 45.724C247.97 45.724 248.466 45.836 248.898 46.06C249.338 46.276 249.766 46.596 250.182 47.02C250.47 47.316 250.754 47.548 251.034 47.716C251.322 47.876 251.678 47.956 252.102 47.956C252.542 47.956 252.942 47.816 253.302 47.536C253.67 47.256 253.974 46.888 254.214 46.432L255.27 47.008C254.878 47.72 254.406 48.256 253.854 48.616C253.31 48.976 252.722 49.156 252.09 49.156C251.538 49.156 251.042 49.048 250.602 48.832C250.162 48.608 249.734 48.284 249.318 47.86ZM256.278 52V51.196C257.15 50.42 257.878 49.712 258.462 49.072C259.046 48.424 259.482 47.824 259.77 47.272C260.066 46.72 260.214 46.204 260.214 45.724C260.214 45.404 260.158 45.124 260.046 44.884C259.942 44.636 259.778 44.448 259.554 44.32C259.338 44.184 259.062 44.116 258.726 44.116C258.382 44.116 258.066 44.212 257.778 44.404C257.49 44.588 257.226 44.816 256.986 45.088L256.206 44.32C256.582 43.904 256.978 43.58 257.394 43.348C257.818 43.116 258.322 43 258.906 43C259.442 43 259.91 43.112 260.31 43.336C260.71 43.552 261.018 43.86 261.234 44.26C261.458 44.652 261.57 45.116 261.57 45.652C261.57 46.22 261.43 46.796 261.15 47.38C260.87 47.956 260.486 48.54 259.998 49.132C259.51 49.716 258.954 50.308 258.33 50.908C258.562 50.884 258.806 50.864 259.062 50.848C259.326 50.824 259.562 50.812 259.77 50.812H261.99V52H256.278ZM266.026 52.168C265.45 52.168 264.946 51.996 264.514 51.652C264.082 51.308 263.746 50.796 263.506 50.116C263.274 49.428 263.158 48.572 263.158 47.548C263.158 46.524 263.274 45.676 263.506 45.004C263.746 44.332 264.082 43.832 264.514 43.504C264.946 43.168 265.45 43 266.026 43C266.602 43 267.102 43.168 267.526 43.504C267.95 43.84 268.278 44.344 268.51 45.016C268.75 45.68 268.87 46.524 268.87 47.548C268.87 48.572 268.75 49.428 268.51 50.116C268.278 50.796 267.95 51.308 267.526 51.652C267.102 51.996 266.602 52.168 266.026 52.168ZM266.026 51.064C266.322 51.064 266.586 50.948 266.818 50.716C267.05 50.484 267.23 50.112 267.358 49.6C267.486 49.08 267.55 48.396 267.55 47.548C267.55 46.7 267.486 46.024 267.358 45.52C267.23 45.016 267.05 44.652 266.818 44.428C266.586 44.204 266.322 44.092 266.026 44.092C265.73 44.092 265.466 44.204 265.234 44.428C265.002 44.652 264.818 45.016 264.682 45.52C264.554 46.024 264.49 46.7 264.49 47.548C264.49 48.396 264.554 49.08 264.682 49.6C264.818 50.112 265.002 50.484 265.234 50.716C265.466 50.948 265.73 51.064 266.026 51.064ZM269.966 52V51.196C270.838 50.42 271.566 49.712 272.15 49.072C272.734 48.424 273.17 47.824 273.458 47.272C273.754 46.72 273.902 46.204 273.902 45.724C273.902 45.404 273.846 45.124 273.734 44.884C273.63 44.636 273.466 44.448 273.242 44.32C273.026 44.184 272.75 44.116 272.414 44.116C272.07 44.116 271.754 44.212 271.466 44.404C271.178 44.588 270.914 44.816 270.674 45.088L269.894 44.32C270.27 43.904 270.666 43.58 271.082 43.348C271.506 43.116 272.01 43 272.594 43C273.13 43 273.598 43.112 273.998 43.336C274.398 43.552 274.706 43.86 274.922 44.26C275.146 44.652 275.258 45.116 275.258 45.652C275.258 46.22 275.118 46.796 274.838 47.38C274.558 47.956 274.174 48.54 273.686 49.132C273.198 49.716 272.642 50.308 272.018 50.908C272.25 50.884 272.494 50.864 272.75 50.848C273.014 50.824 273.25 50.812 273.458 50.812H275.678V52H269.966ZM279.497 52.168C279.041 52.168 278.633 52.112 278.273 52C277.913 51.888 277.597 51.74 277.325 51.556C277.053 51.372 276.813 51.18 276.605 50.98L277.265 50.08C277.433 50.248 277.617 50.404 277.817 50.548C278.017 50.684 278.241 50.796 278.489 50.884C278.745 50.972 279.029 51.016 279.341 51.016C279.669 51.016 279.965 50.944 280.229 50.8C280.493 50.648 280.701 50.432 280.853 50.152C281.005 49.864 281.081 49.524 281.081 49.132C281.081 48.556 280.925 48.108 280.613 47.788C280.309 47.468 279.905 47.308 279.401 47.308C279.121 47.308 278.881 47.348 278.681 47.428C278.481 47.508 278.253 47.632 277.997 47.8L277.313 47.356L277.577 43.156H282.053V44.332H278.777L278.573 46.588C278.765 46.492 278.957 46.42 279.149 46.372C279.341 46.316 279.553 46.288 279.785 46.288C280.281 46.288 280.733 46.388 281.141 46.588C281.549 46.788 281.873 47.096 282.113 47.512C282.353 47.92 282.473 48.448 282.473 49.096C282.473 49.744 282.333 50.3 282.053 50.764C281.773 51.22 281.405 51.568 280.949 51.808C280.501 52.048 280.017 52.168 279.497 52.168ZM286.305 41.824L287.457 42.124C287.233 42.708 286.973 43.284 286.677 43.852C286.381 44.412 286.061 44.932 285.717 45.412C285.373 45.892 285.013 46.312 284.637 46.672C284.565 46.608 284.469 46.528 284.349 46.432C284.237 46.336 284.117 46.244 283.989 46.156C283.869 46.06 283.761 45.988 283.665 45.94C284.041 45.612 284.393 45.232 284.721 44.8C285.049 44.36 285.345 43.888 285.609 43.384C285.881 42.872 286.113 42.352 286.305 41.824ZM286.305 43.264H293.997V44.356H285.753L286.305 43.264ZM285.609 46.036H293.721V47.092H286.737V49.792H285.609V46.036ZM283.653 49.228H294.609V50.332H283.653V49.228ZM289.173 43.828H290.337V53.008H289.173V43.828ZM296.145 52V50.86H298.089V44.716H296.505V43.84C296.921 43.768 297.281 43.676 297.585 43.564C297.897 43.452 298.181 43.316 298.437 43.156H299.481V50.86H301.197V52H296.145ZM305.401 52.168C304.825 52.168 304.321 51.996 303.889 51.652C303.457 51.308 303.121 50.796 302.881 50.116C302.649 49.428 302.533 48.572 302.533 47.548C302.533 46.524 302.649 45.676 302.881 45.004C303.121 44.332 303.457 43.832 303.889 43.504C304.321 43.168 304.825 43 305.401 43C305.977 43 306.477 43.168 306.901 43.504C307.325 43.84 307.653 44.344 307.885 45.016C308.125 45.68 308.245 46.524 308.245 47.548C308.245 48.572 308.125 49.428 307.885 50.116C307.653 50.796 307.325 51.308 306.901 51.652C306.477 51.996 305.977 52.168 305.401 52.168ZM305.401 51.064C305.697 51.064 305.961 50.948 306.193 50.716C306.425 50.484 306.605 50.112 306.733 49.6C306.861 49.08 306.925 48.396 306.925 47.548C306.925 46.7 306.861 46.024 306.733 45.52C306.605 45.016 306.425 44.652 306.193 44.428C305.961 44.204 305.697 44.092 305.401 44.092C305.105 44.092 304.841 44.204 304.609 44.428C304.377 44.652 304.193 45.016 304.057 45.52C303.929 46.024 303.865 46.7 303.865 47.548C303.865 48.396 303.929 49.08 304.057 49.6C304.193 50.112 304.377 50.484 304.609 50.716C304.841 50.948 305.105 51.064 305.401 51.064ZM311.945 42.472H318.089V43.576H311.945V42.472ZM311.945 45.352H318.137V46.432H311.945V45.352ZM311.861 48.232H318.065V49.324H311.861V48.232ZM311.189 42.472H312.353V46.3C312.353 46.82 312.325 47.38 312.269 47.98C312.213 48.572 312.105 49.172 311.945 49.78C311.785 50.388 311.549 50.972 311.237 51.532C310.925 52.084 310.509 52.58 309.989 53.02C309.933 52.94 309.853 52.844 309.749 52.732C309.645 52.628 309.537 52.524 309.425 52.42C309.313 52.324 309.213 52.248 309.125 52.192C309.597 51.784 309.969 51.336 310.241 50.848C310.521 50.36 310.729 49.856 310.865 49.336C311.001 48.816 311.089 48.296 311.129 47.776C311.169 47.256 311.189 46.76 311.189 46.288V42.472ZM317.573 42.472H318.773V51.46C318.773 51.828 318.717 52.108 318.605 52.3C318.501 52.5 318.325 52.648 318.077 52.744C317.821 52.848 317.481 52.912 317.057 52.936C316.641 52.96 316.113 52.972 315.473 52.972C315.457 52.852 315.421 52.72 315.365 52.576C315.309 52.432 315.249 52.288 315.185 52.144C315.129 52 315.069 51.876 315.005 51.772C315.317 51.788 315.621 51.8 315.917 51.808C316.221 51.808 316.485 51.808 316.709 51.808C316.941 51.8 317.105 51.796 317.201 51.796C317.337 51.796 317.433 51.772 317.489 51.724C317.545 51.668 317.573 51.576 317.573 51.448V42.472ZM324.641 47.44C324.641 48.248 324.537 49.004 324.329 49.708C324.129 50.404 323.849 51.04 323.489 51.616C323.129 52.192 322.721 52.712 322.265 53.176L321.353 52.744C321.793 52.28 322.177 51.78 322.505 51.244C322.833 50.708 323.089 50.124 323.273 49.492C323.465 48.86 323.561 48.176 323.561 47.44C323.561 46.696 323.465 46.012 323.273 45.388C323.089 44.756 322.833 44.172 322.505 43.636C322.177 43.092 321.793 42.592 321.353 42.136L322.265 41.704C322.721 42.168 323.129 42.688 323.489 43.264C323.849 43.84 324.129 44.476 324.329 45.172C324.537 45.868 324.641 46.624 324.641 47.44Z" fill="white" fill-opacity="0.5"/>
<path d="M88.4062 62.9219L89.9297 66.0391L93.2812 66.5312C93.5625 66.5781 93.7969 66.7656 93.8906 67.0469C93.9844 67.3047 93.9141 67.6094 93.7031 67.7969L91.2656 70.2109L91.8516 73.6328C91.8984 73.9141 91.7812 74.1953 91.5469 74.3594C91.3125 74.5469 91.0078 74.5469 90.75 74.4297L87.75 72.8125L84.7266 74.4297C84.4922 74.5469 84.1875 74.5469 83.9531 74.3594C83.7188 74.1953 83.6016 73.9141 83.6484 73.6328L84.2109 70.2109L81.7734 67.7969C81.5859 67.6094 81.5156 67.3047 81.5859 67.0469C81.6797 66.7656 81.9141 66.5781 82.1953 66.5312L85.5703 66.0391L87.0703 62.9219C87.1875 62.6641 87.4453 62.5 87.75 62.5C88.0312 62.5 88.2891 62.6641 88.4062 62.9219Z" fill="#FFEAA7"/>
<path d="M100.216 74.168C99.76 74.168 99.352 74.112 98.992 74C98.632 73.888 98.316 73.74 98.044 73.556C97.772 73.372 97.532 73.18 97.324 72.98L97.984 72.08C98.152 72.248 98.336 72.404 98.536 72.548C98.736 72.684 98.96 72.796 99.208 72.884C99.464 72.972 99.748 73.016 100.06 73.016C100.388 73.016 100.684 72.944 100.948 72.8C101.212 72.648 101.42 72.432 101.572 72.152C101.724 71.864 101.8 71.524 101.8 71.132C101.8 70.556 101.644 70.108 101.332 69.788C101.028 69.468 100.624 69.308 100.12 69.308C99.84 69.308 99.6 69.348 99.4 69.428C99.2 69.508 98.972 69.632 98.716 69.8L98.032 69.356L98.296 65.156H102.772V66.332H99.496L99.292 68.588C99.484 68.492 99.676 68.42 99.868 68.372C100.06 68.316 100.272 68.288 100.504 68.288C101 68.288 101.452 68.388 101.86 68.588C102.268 68.788 102.592 69.096 102.832 69.512C103.072 69.92 103.192 70.448 103.192 71.096C103.192 71.744 103.052 72.3 102.772 72.764C102.492 73.22 102.124 73.568 101.668 73.808C101.22 74.048 100.736 74.168 100.216 74.168Z" fill="white" fill-opacity="0.5"/>
<rect x="112" y="65" width="160" height="8" rx="4" fill="white" fill-opacity="0.5"/>
<path d="M112 69C112 66.7909 113.791 65 116 65H200.272V73H116C113.791 73 112 71.2091 112 69Z" fill="#FFEAA7"/>
<path d="M282.928 74.168C282.416 74.168 281.972 74.076 281.596 73.892C281.228 73.7 280.916 73.476 280.66 73.22L281.416 72.356C281.592 72.556 281.808 72.716 282.064 72.836C282.32 72.956 282.584 73.016 282.856 73.016C283.136 73.016 283.4 72.952 283.648 72.824C283.904 72.696 284.124 72.488 284.308 72.2C284.5 71.912 284.648 71.528 284.752 71.048C284.864 70.568 284.92 69.98 284.92 69.284C284.92 68.548 284.848 67.944 284.704 67.472C284.56 66.992 284.356 66.64 284.092 66.416C283.836 66.184 283.528 66.068 283.168 66.068C282.912 66.068 282.68 66.144 282.472 66.296C282.264 66.44 282.1 66.648 281.98 66.92C281.86 67.192 281.8 67.52 281.8 67.904C281.8 68.28 281.852 68.6 281.956 68.864C282.068 69.128 282.232 69.332 282.448 69.476C282.664 69.612 282.924 69.68 283.228 69.68C283.508 69.68 283.796 69.592 284.092 69.416C284.388 69.24 284.668 68.952 284.932 68.552L284.992 69.572C284.824 69.796 284.628 69.992 284.404 70.16C284.18 70.328 283.948 70.46 283.708 70.556C283.468 70.644 283.228 70.688 282.988 70.688C282.5 70.688 282.068 70.584 281.692 70.376C281.324 70.168 281.032 69.86 280.816 69.452C280.608 69.036 280.504 68.52 280.504 67.904C280.504 67.32 280.624 66.812 280.864 66.38C281.112 65.94 281.436 65.6 281.836 65.36C282.236 65.12 282.672 65 283.144 65C283.568 65 283.964 65.088 284.332 65.264C284.708 65.432 285.032 65.692 285.304 66.044C285.584 66.396 285.804 66.84 285.964 67.376C286.124 67.912 286.204 68.548 286.204 69.284C286.204 70.148 286.116 70.892 285.94 71.516C285.764 72.132 285.52 72.636 285.208 73.028C284.896 73.412 284.544 73.7 284.152 73.892C283.76 74.076 283.352 74.168 282.928 74.168ZM290.54 74.168C290.116 74.168 289.72 74.08 289.352 73.904C288.984 73.72 288.66 73.448 288.38 73.088C288.1 72.72 287.88 72.26 287.72 71.708C287.56 71.156 287.48 70.504 287.48 69.752C287.48 68.904 287.572 68.18 287.756 67.58C287.94 66.972 288.188 66.48 288.5 66.104C288.812 65.728 289.168 65.452 289.568 65.276C289.968 65.092 290.384 65 290.816 65C291.312 65 291.74 65.092 292.1 65.276C292.468 65.46 292.776 65.684 293.024 65.948L292.268 66.788C292.108 66.596 291.904 66.44 291.656 66.32C291.408 66.192 291.152 66.128 290.888 66.128C290.504 66.128 290.148 66.244 289.82 66.476C289.5 66.7 289.244 67.076 289.052 67.604C288.86 68.132 288.764 68.848 288.764 69.752C288.764 70.512 288.836 71.14 288.98 71.636C289.124 72.124 289.328 72.492 289.592 72.74C289.856 72.98 290.164 73.1 290.516 73.1C290.78 73.1 291.012 73.024 291.212 72.872C291.42 72.72 291.584 72.508 291.704 72.236C291.824 71.956 291.884 71.628 291.884 71.252C291.884 70.876 291.828 70.556 291.716 70.292C291.604 70.028 291.44 69.828 291.224 69.692C291.016 69.556 290.756 69.488 290.444 69.488C290.18 69.488 289.896 69.572 289.592 69.74C289.296 69.908 289.012 70.196 288.74 70.604L288.692 69.596C288.86 69.356 289.056 69.156 289.28 68.996C289.504 68.828 289.736 68.7 289.976 68.612C290.224 68.524 290.46 68.48 290.684 68.48C291.18 68.48 291.612 68.584 291.98 68.792C292.356 68.992 292.648 69.296 292.856 69.704C293.072 70.112 293.18 70.628 293.18 71.252C293.18 71.836 293.056 72.348 292.808 72.788C292.568 73.22 292.248 73.56 291.848 73.808C291.456 74.048 291.02 74.168 290.54 74.168ZM300.852 64.016H301.992V75.008H300.852V64.016ZM298.788 64.496L299.88 64.724C299.776 65.268 299.644 65.812 299.484 66.356C299.324 66.892 299.144 67.392 298.944 67.856C298.752 68.32 298.544 68.732 298.32 69.092C298.248 69.036 298.152 68.976 298.032 68.912C297.912 68.84 297.788 68.772 297.66 68.708C297.54 68.636 297.432 68.58 297.336 68.54C297.568 68.212 297.776 67.832 297.96 67.4C298.144 66.968 298.304 66.504 298.44 66.008C298.584 65.512 298.7 65.008 298.788 64.496ZM299.064 66.272H304.644V67.388H298.776L299.064 66.272ZM297.48 69.776H305.196V70.892H297.48V69.776ZM296.771 63.92L297.84 64.244C297.592 64.924 297.296 65.6 296.952 66.272C296.616 66.936 296.248 67.568 295.848 68.168C295.456 68.76 295.048 69.284 294.624 69.74C294.592 69.644 294.536 69.524 294.456 69.38C294.384 69.236 294.304 69.092 294.216 68.948C294.136 68.796 294.064 68.676 294 68.588C294.368 68.204 294.72 67.764 295.056 67.268C295.4 66.764 295.72 66.228 296.016 65.66C296.312 65.084 296.564 64.504 296.771 63.92ZM295.56 67.1L296.64 66.032L296.652 66.044V74.996H295.56V67.1Z" fill="white" fill-opacity="0.5"/>
<path d="M88.4062 78.9219L89.9297 82.0391L93.2812 82.5312C93.5625 82.5781 93.7969 82.7656 93.8906 83.0469C93.9844 83.3047 93.9141 83.6094 93.7031 83.7969L91.2656 86.2109L91.8516 89.6328C91.8984 89.9141 91.7812 90.1953 91.5469 90.3594C91.3125 90.5469 91.0078 90.5469 90.75 90.4297L87.75 88.8125L84.7266 90.4297C84.4922 90.5469 84.1875 90.5469 83.9531 90.3594C83.7188 90.1953 83.6016 89.9141 83.6484 89.6328L84.2109 86.2109L81.7734 83.7969C81.5859 83.6094 81.5156 83.3047 81.5859 83.0469C81.6797 82.7656 81.9141 82.5781 82.1953 82.5312L85.5703 82.0391L87.0703 78.9219C87.1875 78.6641 87.4453 78.5 87.75 78.5C88.0312 78.5 88.2891 78.6641 88.4062 78.9219Z" fill="#FFEAA7"/>
<path d="M101.068 90V84.24C101.068 84 101.076 83.716 101.092 83.388C101.108 83.052 101.12 82.764 101.128 82.524H101.08C100.968 82.748 100.852 82.976 100.732 83.208C100.62 83.44 100.5 83.668 100.372 83.892L98.644 86.544H103.48V87.624H97.24V86.7L100.756 81.156H102.364V90H101.068Z" fill="white" fill-opacity="0.5"/>
<rect x="112" y="81" width="160" height="8" rx="4" fill="white" fill-opacity="0.5"/>
<path d="M112 85C112 82.7909 113.791 81 116 81H168.096V89H116C113.791 89 112 87.2091 112 85Z" fill="white" fill-opacity="0.8"/>
<path d="M283.696 90.168C283.272 90.168 282.876 90.08 282.508 89.904C282.14 89.72 281.816 89.448 281.536 89.088C281.256 88.72 281.036 88.26 280.876 87.708C280.716 87.156 280.636 86.504 280.636 85.752C280.636 84.904 280.728 84.18 280.912 83.58C281.096 82.972 281.344 82.48 281.656 82.104C281.968 81.728 282.324 81.452 282.724 81.276C283.124 81.092 283.54 81 283.972 81C284.468 81 284.896 81.092 285.256 81.276C285.624 81.46 285.932 81.684 286.18 81.948L285.424 82.788C285.264 82.596 285.06 82.44 284.812 82.32C284.564 82.192 284.308 82.128 284.044 82.128C283.66 82.128 283.304 82.244 282.976 82.476C282.656 82.7 282.4 83.076 282.208 83.604C282.016 84.132 281.92 84.848 281.92 85.752C281.92 86.512 281.992 87.14 282.136 87.636C282.28 88.124 282.484 88.492 282.748 88.74C283.012 88.98 283.32 89.1 283.672 89.1C283.936 89.1 284.168 89.024 284.368 88.872C284.576 88.72 284.74 88.508 284.86 88.236C284.98 87.956 285.04 87.628 285.04 87.252C285.04 86.876 284.984 86.556 284.872 86.292C284.76 86.028 284.596 85.828 284.38 85.692C284.172 85.556 283.912 85.488 283.6 85.488C283.336 85.488 283.052 85.572 282.748 85.74C282.452 85.908 282.168 86.196 281.896 86.604L281.848 85.596C282.016 85.356 282.212 85.156 282.436 84.996C282.66 84.828 282.892 84.7 283.132 84.612C283.38 84.524 283.616 84.48 283.84 84.48C284.336 84.48 284.768 84.584 285.136 84.792C285.512 84.992 285.804 85.296 286.012 85.704C286.228 86.112 286.336 86.628 286.336 87.252C286.336 87.836 286.212 88.348 285.964 88.788C285.724 89.22 285.404 89.56 285.004 89.808C284.612 90.048 284.176 90.168 283.696 90.168ZM287.864 90V88.86H289.808V82.716H288.224V81.84C288.64 81.768 289 81.676 289.304 81.564C289.616 81.452 289.9 81.316 290.156 81.156H291.2V88.86H292.916V90H287.864ZM300.852 80.016H301.992V91.008H300.852V80.016ZM298.788 80.496L299.88 80.724C299.776 81.268 299.644 81.812 299.484 82.356C299.324 82.892 299.144 83.392 298.944 83.856C298.752 84.32 298.544 84.732 298.32 85.092C298.248 85.036 298.152 84.976 298.032 84.912C297.912 84.84 297.788 84.772 297.66 84.708C297.54 84.636 297.432 84.58 297.336 84.54C297.568 84.212 297.776 83.832 297.96 83.4C298.144 82.968 298.304 82.504 298.44 82.008C298.584 81.512 298.7 81.008 298.788 80.496ZM299.064 82.272H304.644V83.388H298.776L299.064 82.272ZM297.48 85.776H305.196V86.892H297.48V85.776ZM296.771 79.92L297.84 80.244C297.592 80.924 297.296 81.6 296.952 82.272C296.616 82.936 296.248 83.568 295.848 84.168C295.456 84.76 295.048 85.284 294.624 85.74C294.592 85.644 294.536 85.524 294.456 85.38C294.384 85.236 294.304 85.092 294.216 84.948C294.136 84.796 294.064 84.676 294 84.588C294.368 84.204 294.72 83.764 295.056 83.268C295.4 82.764 295.72 82.228 296.016 81.66C296.312 81.084 296.564 80.504 296.771 79.92ZM295.56 83.1L296.64 82.032L296.652 82.044V90.996H295.56V83.1Z" fill="white" fill-opacity="0.5"/>
<path d="M88.4062 94.9219L89.9297 98.0391L93.2812 98.5312C93.5625 98.5781 93.7969 98.7656 93.8906 99.0469C93.9844 99.3047 93.9141 99.6094 93.7031 99.7969L91.2656 102.211L91.8516 105.633C91.8984 105.914 91.7812 106.195 91.5469 106.359C91.3125 106.547 91.0078 106.547 90.75 106.43L87.75 104.812L84.7266 106.43C84.4922 106.547 84.1875 106.547 83.9531 106.359C83.7188 106.195 83.6016 105.914 83.6484 105.633L84.2109 102.211L81.7734 99.7969C81.5859 99.6094 81.5156 99.3047 81.5859 99.0469C81.6797 98.7656 81.9141 98.5781 82.1953 98.5312L85.5703 98.0391L87.0703 94.9219C87.1875 94.6641 87.4453 94.5 87.75 94.5C88.0312 94.5 88.2891 94.6641 88.4062 94.9219Z" fill="#FFEAA7"/>
<path d="M100.216 106.168C99.752 106.168 99.34 106.112 98.98 106C98.628 105.888 98.316 105.74 98.044 105.556C97.772 105.364 97.536 105.16 97.336 104.944L98.008 104.056C98.272 104.312 98.572 104.536 98.908 104.728C99.244 104.92 99.64 105.016 100.096 105.016C100.432 105.016 100.724 104.96 100.972 104.848C101.22 104.728 101.412 104.56 101.548 104.344C101.692 104.128 101.764 103.864 101.764 103.552C101.764 103.232 101.684 102.952 101.524 102.712C101.372 102.464 101.104 102.276 100.72 102.148C100.344 102.012 99.824 101.944 99.16 101.944V100.912C99.744 100.912 100.2 100.848 100.528 100.72C100.864 100.584 101.104 100.4 101.248 100.168C101.4 99.936 101.476 99.672 101.476 99.376C101.476 98.992 101.356 98.688 101.116 98.464C100.876 98.232 100.544 98.116 100.12 98.116C99.784 98.116 99.468 98.192 99.172 98.344C98.884 98.488 98.612 98.684 98.356 98.932L97.636 98.068C97.988 97.748 98.372 97.492 98.788 97.3C99.204 97.1 99.664 97 100.168 97C100.696 97 101.164 97.092 101.572 97.276C101.98 97.452 102.3 97.708 102.532 98.044C102.764 98.38 102.88 98.792 102.88 99.28C102.88 99.784 102.74 100.212 102.46 100.564C102.188 100.916 101.82 101.18 101.356 101.356V101.404C101.692 101.492 101.996 101.636 102.268 101.836C102.548 102.028 102.768 102.276 102.928 102.58C103.088 102.884 103.168 103.232 103.168 103.624C103.168 104.152 103.032 104.608 102.76 104.992C102.496 105.368 102.14 105.66 101.692 105.868C101.244 106.068 100.752 106.168 100.216 106.168Z" fill="white" fill-opacity="0.5"/>
<rect x="112" y="97" width="160" height="8" rx="4" fill="white" fill-opacity="0.5"/>
<path d="M112 101C112 98.7909 113.791 97 116 97H123.952V105H116C113.791 105 112 103.209 112 101Z" fill="white" fill-opacity="0.5"/>
<path d="M281.02 106V104.86H282.964V98.716H281.38V97.84C281.796 97.768 282.156 97.676 282.46 97.564C282.772 97.452 283.056 97.316 283.312 97.156H284.356V104.86H286.072V106H281.02ZM290.06 106.168C289.596 106.168 289.184 106.112 288.824 106C288.472 105.888 288.16 105.74 287.888 105.556C287.616 105.364 287.38 105.16 287.18 104.944L287.852 104.056C288.116 104.312 288.416 104.536 288.752 104.728C289.088 104.92 289.484 105.016 289.94 105.016C290.276 105.016 290.568 104.96 290.816 104.848C291.064 104.728 291.256 104.56 291.392 104.344C291.536 104.128 291.608 103.864 291.608 103.552C291.608 103.232 291.528 102.952 291.368 102.712C291.216 102.464 290.948 102.276 290.564 102.148C290.188 102.012 289.668 101.944 289.004 101.944V100.912C289.588 100.912 290.044 100.848 290.372 100.72C290.708 100.584 290.948 100.4 291.092 100.168C291.244 99.936 291.32 99.672 291.32 99.376C291.32 98.992 291.2 98.688 290.96 98.464C290.72 98.232 290.388 98.116 289.964 98.116C289.628 98.116 289.312 98.192 289.016 98.344C288.728 98.488 288.456 98.684 288.2 98.932L287.48 98.068C287.832 97.748 288.216 97.492 288.632 97.3C289.048 97.1 289.508 97 290.012 97C290.54 97 291.008 97.092 291.416 97.276C291.824 97.452 292.144 97.708 292.376 98.044C292.608 98.38 292.724 98.792 292.724 99.28C292.724 99.784 292.584 100.212 292.304 100.564C292.032 100.916 291.664 101.18 291.2 101.356V101.404C291.536 101.492 291.84 101.636 292.112 101.836C292.392 102.028 292.612 102.276 292.772 102.58C292.932 102.884 293.012 103.232 293.012 103.624C293.012 104.152 292.876 104.608 292.604 104.992C292.34 105.368 291.984 105.66 291.536 105.868C291.088 106.068 290.596 106.168 290.06 106.168ZM300.852 96.016H301.992V107.008H300.852V96.016ZM298.788 96.496L299.88 96.724C299.776 97.268 299.644 97.812 299.484 98.356C299.324 98.892 299.144 99.392 298.944 99.856C298.752 100.32 298.544 100.732 298.32 101.092C298.248 101.036 298.152 100.976 298.032 100.912C297.912 100.84 297.788 100.772 297.66 100.708C297.54 100.636 297.432 100.58 297.336 100.54C297.568 100.212 297.776 99.832 297.96 99.4C298.144 98.968 298.304 98.504 298.44 98.008C298.584 97.512 298.7 97.008 298.788 96.496ZM299.064 98.272H304.644V99.388H298.776L299.064 98.272ZM297.48 101.776H305.196V102.892H297.48V101.776ZM296.771 95.92L297.84 96.244C297.592 96.924 297.296 97.6 296.952 98.272C296.616 98.936 296.248 99.568 295.848 100.168C295.456 100.76 295.048 101.284 294.624 101.74C294.592 101.644 294.536 101.524 294.456 101.38C294.384 101.236 294.304 101.092 294.216 100.948C294.136 100.796 294.064 100.676 294 100.588C294.368 100.204 294.72 99.764 295.056 99.268C295.4 98.764 295.72 98.228 296.016 97.66C296.312 97.084 296.564 96.504 296.771 95.92ZM295.56 99.1L296.64 98.032L296.652 98.044V106.996H295.56V99.1Z" fill="white" fill-opacity="0.5"/>
<path d="M88.4062 110.922L89.9297 114.039L93.2812 114.531C93.5625 114.578 93.7969 114.766 93.8906 115.047C93.9844 115.305 93.9141 115.609 93.7031 115.797L91.2656 118.211L91.8516 121.633C91.8984 121.914 91.7812 122.195 91.5469 122.359C91.3125 122.547 91.0078 122.547 90.75 122.43L87.75 120.812L84.7266 122.43C84.4922 122.547 84.1875 122.547 83.9531 122.359C83.7188 122.195 83.6016 121.914 83.6484 121.633L84.2109 118.211L81.7734 115.797C81.5859 115.609 81.5156 115.305 81.5859 115.047C81.6797 114.766 81.9141 114.578 82.1953 114.531L85.5703 114.039L87.0703 110.922C87.1875 110.664 87.4453 110.5 87.75 110.5C88.0312 110.5 88.2891 110.664 88.4062 110.922Z" fill="#FFEAA7"/>
<path d="M97.528 122V121.196C98.4 120.42 99.128 119.712 99.712 119.072C100.296 118.424 100.732 117.824 101.02 117.272C101.316 116.72 101.464 116.204 101.464 115.724C101.464 115.404 101.408 115.124 101.296 114.884C101.192 114.636 101.028 114.448 100.804 114.32C100.588 114.184 100.312 114.116 99.976 114.116C99.632 114.116 99.316 114.212 99.028 114.404C98.74 114.588 98.476 114.816 98.236 115.088L97.456 114.32C97.832 113.904 98.228 113.58 98.644 113.348C99.068 113.116 99.572 113 100.156 113C100.692 113 101.16 113.112 101.56 113.336C101.96 113.552 102.268 113.86 102.484 114.26C102.708 114.652 102.82 115.116 102.82 115.652C102.82 116.22 102.68 116.796 102.4 117.38C102.12 117.956 101.736 118.54 101.248 119.132C100.76 119.716 100.204 120.308 99.58 120.908C99.812 120.884 100.056 120.864 100.312 120.848C100.576 120.824 100.812 120.812 101.02 120.812H103.24V122H97.528Z" fill="white" fill-opacity="0.5"/>
<rect x="112" y="113" width="160" height="8" rx="4" fill="white" fill-opacity="0.5"/>
<path d="M112 116C112 114.343 113.343 113 115 113V121C113.343 121 112 119.657 112 118V116Z" fill="white" fill-opacity="0.5"/>
<path d="M283.216 122.168C282.752 122.168 282.34 122.112 281.98 122C281.628 121.888 281.316 121.74 281.044 121.556C280.772 121.364 280.536 121.16 280.336 120.944L281.008 120.056C281.272 120.312 281.572 120.536 281.908 120.728C282.244 120.92 282.64 121.016 283.096 121.016C283.432 121.016 283.724 120.96 283.972 120.848C284.22 120.728 284.412 120.56 284.548 120.344C284.692 120.128 284.764 119.864 284.764 119.552C284.764 119.232 284.684 118.952 284.524 118.712C284.372 118.464 284.104 118.276 283.72 118.148C283.344 118.012 282.824 117.944 282.16 117.944V116.912C282.744 116.912 283.2 116.848 283.528 116.72C283.864 116.584 284.104 116.4 284.248 116.168C284.4 115.936 284.476 115.672 284.476 115.376C284.476 114.992 284.356 114.688 284.116 114.464C283.876 114.232 283.544 114.116 283.12 114.116C282.784 114.116 282.468 114.192 282.172 114.344C281.884 114.488 281.612 114.684 281.356 114.932L280.636 114.068C280.988 113.748 281.372 113.492 281.788 113.3C282.204 113.1 282.664 113 283.168 113C283.696 113 284.164 113.092 284.572 113.276C284.98 113.452 285.3 113.708 285.532 114.044C285.764 114.38 285.88 114.792 285.88 115.28C285.88 115.784 285.74 116.212 285.46 116.564C285.188 116.916 284.82 117.18 284.356 117.356V117.404C284.692 117.492 284.996 117.636 285.268 117.836C285.548 118.028 285.768 118.276 285.928 118.58C286.088 118.884 286.168 119.232 286.168 119.624C286.168 120.152 286.032 120.608 285.76 120.992C285.496 121.368 285.14 121.66 284.692 121.868C284.244 122.068 283.752 122.168 283.216 122.168ZM294.008 112.016H295.148V123.008H294.008V112.016ZM291.944 112.496L293.036 112.724C292.932 113.268 292.8 113.812 292.64 114.356C292.48 114.892 292.3 115.392 292.1 115.856C291.908 116.32 291.7 116.732 291.476 117.092C291.404 117.036 291.308 116.976 291.188 116.912C291.068 116.84 290.944 116.772 290.816 116.708C290.696 116.636 290.588 116.58 290.492 116.54C290.724 116.212 290.932 115.832 291.116 115.4C291.3 114.968 291.46 114.504 291.596 114.008C291.74 113.512 291.856 113.008 291.944 112.496ZM292.22 114.272H297.8V115.388H291.932L292.22 114.272ZM290.636 117.776H298.352V118.892H290.636V117.776ZM289.928 111.92L290.996 112.244C290.748 112.924 290.452 113.6 290.108 114.272C289.772 114.936 289.404 115.568 289.004 116.168C288.612 116.76 288.204 117.284 287.78 117.74C287.748 117.644 287.692 117.524 287.612 117.38C287.54 117.236 287.46 117.092 287.372 116.948C287.292 116.796 287.22 116.676 287.156 116.588C287.524 116.204 287.876 115.764 288.212 115.268C288.556 114.764 288.876 114.228 289.172 113.66C289.468 113.084 289.72 112.504 289.928 111.92ZM288.716 115.1L289.796 114.032L289.808 114.044V122.996H288.716V115.1Z" fill="white" fill-opacity="0.5"/>
<path d="M88.4062 126.922L89.9297 130.039L93.2812 130.531C93.5625 130.578 93.7969 130.766 93.8906 131.047C93.9844 131.305 93.9141 131.609 93.7031 131.797L91.2656 134.211L91.8516 137.633C91.8984 137.914 91.7812 138.195 91.5469 138.359C91.3125 138.547 91.0078 138.547 90.75 138.43L87.75 136.812L84.7266 138.43C84.4922 138.547 84.1875 138.547 83.9531 138.359C83.7188 138.195 83.6016 137.914 83.6484 137.633L84.2109 134.211L81.7734 131.797C81.5859 131.609 81.5156 131.305 81.5859 131.047C81.6797 130.766 81.9141 130.578 82.1953 130.531L85.5703 130.039L87.0703 126.922C87.1875 126.664 87.4453 126.5 87.75 126.5C88.0312 126.5 88.2891 126.664 88.4062 126.922Z" fill="#FFEAA7"/>
<path d="M98.02 138V136.86H99.964V130.716H98.38V129.84C98.796 129.768 99.156 129.676 99.46 129.564C99.772 129.452 100.056 129.316 100.312 129.156H101.356V136.86H103.072V138H98.02Z" fill="white" fill-opacity="0.5"/>
<rect x="112" y="129" width="160" height="8" rx="4" fill="white" fill-opacity="0.5"/>
<path d="M112 132C112 131.448 112.448 131 113 131V135C112.448 135 112 134.552 112 134V132Z" fill="white" fill-opacity="0.5"/>
<path d="M281.02 138V136.86H282.964V130.716H281.38V129.84C281.796 129.768 282.156 129.676 282.46 129.564C282.772 129.452 283.056 129.316 283.312 129.156H284.356V136.86H286.072V138H281.02ZM294.008 128.016H295.148V139.008H294.008V128.016ZM291.944 128.496L293.036 128.724C292.932 129.268 292.8 129.812 292.64 130.356C292.48 130.892 292.3 131.392 292.1 131.856C291.908 132.32 291.7 132.732 291.476 133.092C291.404 133.036 291.308 132.976 291.188 132.912C291.068 132.84 290.944 132.772 290.816 132.708C290.696 132.636 290.588 132.58 290.492 132.54C290.724 132.212 290.932 131.832 291.116 131.4C291.3 130.968 291.46 130.504 291.596 130.008C291.74 129.512 291.856 129.008 291.944 128.496ZM292.22 130.272H297.8V131.388H291.932L292.22 130.272ZM290.636 133.776H298.352V134.892H290.636V133.776ZM289.928 127.92L290.996 128.244C290.748 128.924 290.452 129.6 290.108 130.272C289.772 130.936 289.404 131.568 289.004 132.168C288.612 132.76 288.204 133.284 287.78 133.74C287.748 133.644 287.692 133.524 287.612 133.38C287.54 133.236 287.46 133.092 287.372 132.948C287.292 132.796 287.22 132.676 287.156 132.588C287.524 132.204 287.876 131.764 288.212 131.268C288.556 130.764 288.876 130.228 289.172 129.66C289.468 129.084 289.72 128.504 289.928 127.92ZM288.716 131.1L289.796 130.032L289.808 130.044V138.996H288.716V131.1Z" fill="white" fill-opacity="0.5"/>
</svg>
